<svg width="16" height="16" viewBox="0 0 16 16" fill="none" xmlns="http://www.w3.org/2000/svg">
<rect width="16" height="16" rx="2" fill="white"/>
<path fill-rule="evenodd" clip-rule="evenodd" d="M7.76769 12.5257C7.6783 12.7061 7.51279 12.8369 7.31665 12.8822C7.12052 12.9275 6.91441 12.8825 6.755 12.7595C6.36711 12.4606 5.83186 12.4419 5.42409 12.7132C5.2565 12.8246 5.04779 12.8551 4.85533 12.7962C4.66287 12.7373 4.50692 12.5953 4.43034 12.4092C4.24391 11.9563 3.78965 11.6724 3.30084 11.7035C3.09995 11.7163 2.90392 11.6383 2.76664 11.4911C2.62935 11.3439 2.56528 11.1429 2.59203 10.9434C2.65699 10.458 2.40559 9.98521 1.96689 9.76767C1.78653 9.67828 1.65573 9.51276 1.61045 9.31663C1.56516 9.12049 1.61017 8.91439 1.73308 8.75498C2.03206 8.36709 2.05072 7.83184 1.77948 7.42407C1.66804 7.25647 1.63758 7.04776 1.69645 6.8553C1.75532 6.66285 1.89733 6.50689 2.08345 6.43031C2.53637 6.24389 2.82018 5.78962 2.78912 5.30082C2.77636 5.09993 2.85431 4.90389 3.00153 4.76661C3.14875 4.62933 3.34974 4.56525 3.54925 4.592C4.0346 4.65697 4.50741 4.40557 4.72496 3.96687C4.81435 3.78651 4.97986 3.65571 5.176 3.61042C5.37214 3.56514 5.57824 3.61014 5.73765 3.73306C6.12554 4.03204 6.66079 4.0507 7.06856 3.77945C7.23615 3.66802 7.44487 3.63755 7.63732 3.69642C7.82978 3.75529 7.98573 3.8973 8.06232 4.08343C8.24874 4.53635 8.70301 4.82016 9.19181 4.7891C9.3927 4.77634 9.58873 4.85428 9.72602 5.0015C9.8633 5.14872 9.92737 5.34972 9.90063 5.54923C9.83566 6.03458 10.0871 6.50739 10.5258 6.72493C10.7061 6.81432 10.8369 6.97984 10.8822 7.17598C10.9275 7.37211 10.8825 7.57822 10.7596 7.73763C10.4606 8.12552 10.4419 8.66077 10.7132 9.06853C10.8246 9.23613 10.8551 9.44484 10.7962 9.6373C10.7373 9.82976 10.5953 9.98571 10.4092 10.0623C9.95628 10.2487 9.67247 10.703 9.70353 11.1918C9.71629 11.3927 9.63835 11.5887 9.49113 11.726C9.34391 11.8633 9.14291 11.9274 8.9434 11.9006C8.45805 11.8356 7.98524 12.087 7.76769 12.5257Z" fill="#18CCF0"/>
<g filter="url(#filter0_b_41_2889)">
<path fill-rule="evenodd" clip-rule="evenodd" d="M8.71554 14.3228C8.55194 14.44 8.34439 14.4778 8.14996 14.4257C7.95552 14.3736 7.79466 14.2371 7.71162 14.0538C7.5095 13.6077 7.04566 13.3399 6.55828 13.388C6.35799 13.4077 6.1594 13.3366 6.01711 13.1943C5.87482 13.0519 5.80379 12.8533 5.82355 12.653C5.87158 12.1656 5.60373 11.7018 5.15756 11.4997C4.9742 11.4167 4.8377 11.2558 4.7856 11.0614C4.7335 10.8669 4.77129 10.6594 4.88857 10.4958C5.17379 10.0977 5.17379 9.56225 4.88857 9.16421C4.77129 9.00061 4.7335 8.79306 4.7856 8.59862C4.8377 8.40419 4.9742 8.24333 5.15756 8.16029C5.60365 7.95817 5.87141 7.49433 5.82335 7.00695C5.80364 6.80666 5.87472 6.60807 6.01706 6.46578C6.15939 6.32349 6.35799 6.25246 6.55828 6.27222C7.04571 6.32025 7.50956 6.0524 7.71162 5.60623C7.79466 5.42286 7.95552 5.28637 8.14996 5.23427C8.34439 5.18217 8.55194 5.21996 8.71554 5.33724C9.11358 5.62246 9.64908 5.62246 10.0471 5.33724C10.2107 5.21996 10.4183 5.18217 10.6127 5.23427C10.8071 5.28637 10.968 5.42286 11.051 5.60623C11.2532 6.05232 11.717 6.32008 12.2044 6.27201C12.4047 6.25231 12.6033 6.32339 12.7455 6.46572C12.8878 6.60806 12.9589 6.80666 12.9391 7.00695C12.8911 7.49438 13.1589 7.95823 13.6051 8.16029C13.7885 8.24333 13.925 8.40419 13.9771 8.59862C14.0292 8.79306 13.9914 9.00061 13.8741 9.16421C13.5889 9.56225 13.5889 10.0977 13.8741 10.4958C13.9914 10.6594 14.0292 10.8669 13.9771 11.0614C13.925 11.2558 13.7885 11.4167 13.6051 11.4997C13.159 11.7018 12.8912 12.1657 12.9393 12.653C12.959 12.8533 12.8879 13.0519 12.7456 13.1942C12.6033 13.3365 12.4047 13.4075 12.2044 13.3878C11.7169 13.3397 11.2531 13.6076 11.051 14.0538C10.968 14.2371 10.8071 14.3736 10.6127 14.4257C10.4183 14.4778 10.2107 14.44 10.0471 14.3228C9.64908 14.0375 9.11358 14.0375 8.71554 14.3228Z" fill="white" fill-opacity="0.06"/>
</g>
<path d="M7.23854 9.73363C7.46007 9.81235 7.57084 9.96705 7.57084 10.1977C7.57084 10.379 7.50447 10.5209 7.37174 10.6234C7.239 10.7259 7.05272 10.7772 6.81288 10.7772H6.01099V8.76696H6.73873C6.95294 8.76696 7.12732 8.81593 7.26189 8.91388C7.39645 9.01183 7.46373 9.1496 7.46373 9.32719C7.46373 9.5121 7.38867 9.64758 7.23854 9.73363ZM6.40095 9.11298V9.58808H6.70029C6.8083 9.58808 6.89389 9.56565 6.95706 9.5208C7.02022 9.47594 7.0518 9.41598 7.0518 9.34092C7.0518 9.26769 7.02068 9.21139 6.95843 9.17203C6.89618 9.13266 6.81013 9.11298 6.70029 9.11298H6.40095ZM6.77993 10.4312C6.90076 10.4312 6.99367 10.4092 7.05867 10.3653C7.12366 10.3213 7.15616 10.2591 7.15616 10.1785C7.15616 10.098 7.12366 10.0348 7.05867 9.98902C6.99367 9.94325 6.89984 9.92037 6.77718 9.92037H6.40095V10.4312H6.77993ZM8.44688 9.31895C8.63911 9.31895 8.78924 9.37341 8.89726 9.48235C9.00527 9.59128 9.05928 9.74644 9.05928 9.94783V10.7772H8.73798C8.73614 10.7625 8.73386 10.7383 8.73111 10.7044C8.72836 10.6705 8.72425 10.6408 8.71875 10.6152C8.67664 10.6811 8.62218 10.73 8.55535 10.7621C8.48853 10.7941 8.40752 10.8101 8.31231 10.8101C8.21345 10.8101 8.12328 10.7928 8.04181 10.758C7.96034 10.7232 7.8958 10.6724 7.8482 10.6055C7.8006 10.5387 7.7768 10.4595 7.7768 10.368C7.7768 10.2728 7.80381 10.19 7.85781 10.1195C7.91182 10.049 7.9846 9.99452 8.07614 9.95607C8.16768 9.91762 8.26837 9.8984 8.37822 9.8984C8.47709 9.8984 8.5787 9.91488 8.68305 9.94783C8.67756 9.73729 8.58785 9.63202 8.41392 9.63202C8.27478 9.63202 8.17317 9.69426 8.10909 9.81876L7.83722 9.66223C7.88848 9.55604 7.96721 9.47228 8.07339 9.41095C8.17958 9.34961 8.30407 9.31895 8.44688 9.31895ZM8.68305 10.2005C8.59151 10.1785 8.51187 10.1675 8.44413 10.1675C8.35442 10.1675 8.28485 10.1835 8.23542 10.2156C8.18599 10.2476 8.16127 10.2929 8.16127 10.3515C8.16127 10.4046 8.18095 10.4458 8.22031 10.4751C8.25968 10.5044 8.31048 10.519 8.37273 10.519C8.45512 10.519 8.52743 10.4957 8.58968 10.449C8.65193 10.4023 8.68305 10.3378 8.68305 10.2554V10.2005ZM10.4489 10.3543C10.4489 10.4952 10.3944 10.6065 10.2855 10.6879C10.1765 10.7694 10.0351 10.8101 9.86118 10.8101C9.71105 10.8101 9.58152 10.7781 9.47259 10.714C9.36366 10.6499 9.28997 10.5612 9.25152 10.4476L9.52889 10.2856C9.55635 10.3534 9.59937 10.406 9.65796 10.4435C9.71654 10.4811 9.7852 10.4998 9.86392 10.4998C9.92251 10.4998 9.9692 10.4888 10.004 10.4669C10.0388 10.4449 10.0562 10.4138 10.0562 10.3735C10.0562 10.3277 10.0333 10.2925 9.9875 10.2678C9.94173 10.243 9.87033 10.217 9.7733 10.1895C9.67627 10.1602 9.59708 10.1318 9.53575 10.1044C9.47442 10.0769 9.42133 10.0371 9.37647 9.98491C9.33162 9.93273 9.30919 9.86453 9.30919 9.78031C9.30919 9.68511 9.33528 9.60272 9.38746 9.53315C9.43963 9.46358 9.50966 9.41049 9.59754 9.37387C9.68542 9.33726 9.78154 9.31895 9.88589 9.31895C10.0287 9.31895 10.1495 9.34961 10.2484 9.41095C10.3473 9.47228 10.4095 9.55329 10.4351 9.65399L10.1578 9.81052C10.1028 9.69152 10.0104 9.63202 9.8804 9.63202C9.82548 9.63202 9.78154 9.64254 9.74858 9.6636C9.71563 9.68465 9.69915 9.7144 9.69915 9.75285C9.69915 9.79679 9.72112 9.8302 9.76506 9.85309C9.809 9.87597 9.87766 9.90023 9.97103 9.92586C10.0699 9.95332 10.1514 9.98079 10.2154 10.0082C10.2795 10.0357 10.3344 10.0774 10.3802 10.1332C10.426 10.189 10.4489 10.2627 10.4489 10.3543ZM10.8663 9.1734C10.8059 9.1734 10.7532 9.15006 10.7084 9.10337C10.6635 9.05669 10.6411 9.00222 10.6411 8.93997C10.6411 8.87589 10.6631 8.82097 10.707 8.7752C10.751 8.72943 10.804 8.70654 10.8663 8.70654C10.9285 8.70654 10.9825 8.72989 11.0283 8.77657C11.0741 8.82326 11.097 8.87772 11.097 8.93997C11.097 9.00222 11.0741 9.05669 11.0283 9.10337C10.9825 9.15006 10.9285 9.1734 10.8663 9.1734ZM11.0613 10.7772H10.6795V9.35465H11.0613V10.7772ZM12.0554 10.4779C12.1653 10.4779 12.2531 10.4238 12.319 10.3158L12.6101 10.4861C12.5644 10.5923 12.4921 10.6728 12.3932 10.7278C12.2943 10.7827 12.1817 10.8101 12.0554 10.8101C11.9291 10.8101 11.811 10.7813 11.7011 10.7236C11.5913 10.666 11.5025 10.5808 11.4348 10.4682C11.367 10.3556 11.3331 10.2215 11.3331 10.0659C11.3331 9.90847 11.367 9.77345 11.4348 9.66085C11.5025 9.54826 11.5913 9.46312 11.7011 9.40545C11.811 9.34778 11.9291 9.31895 12.0554 9.31895C12.1817 9.31895 12.2943 9.34641 12.3932 9.40134C12.4921 9.45626 12.5644 9.53681 12.6101 9.643L12.319 9.81327C12.255 9.70708 12.1671 9.65399 12.0554 9.65399C11.9565 9.65399 11.8774 9.69106 11.8179 9.76521C11.7584 9.83936 11.7286 9.93959 11.7286 10.0659C11.7286 10.1904 11.7588 10.2902 11.8192 10.3653C11.8796 10.4403 11.9584 10.4779 12.0554 10.4779Z" fill="white"/>
<defs>
<filter id="filter0_b_41_2889" x="-1.2373" y="-0.788635" width="21.2373" height="21.2372" filterUnits="userSpaceOnUse" color-interpolation-filters="sRGB">
<feFlood flood-opacity="0" result="BackgroundImageFix"/>
<feGaussianBlur in="BackgroundImageFix" stdDeviation="3"/>
<feComposite in2="SourceAlpha" operator="in" result="effect1_backgroundBlur_41_2889"/>
<feBlend mode="normal" in="SourceGraphic" in2="effect1_backgroundBlur_41_2889" result="shape"/>
</filter>
</defs>
</svg>
