<svg width="16" height="16" viewBox="0 0 16 16" fill="none" xmlns="http://www.w3.org/2000/svg">
<rect width="16" height="16" rx="2" fill="white"/>
<path fill-rule="evenodd" clip-rule="evenodd" d="M7.65803 11.0221C7.58141 11.1767 7.43954 11.2888 7.27142 11.3276C7.1033 11.3664 6.92664 11.3278 6.79 11.2225C6.45753 10.9662 5.99874 10.9502 5.64923 11.1827C5.50557 11.2782 5.32668 11.3043 5.16171 11.2539C4.99675 11.2034 4.86307 11.0817 4.79743 10.9222C4.63764 10.5339 4.24827 10.2907 3.8293 10.3173C3.6571 10.3282 3.48907 10.2614 3.3714 10.1352C3.25373 10.0091 3.19881 9.83677 3.22174 9.66576C3.27742 9.24975 3.06194 8.84448 2.68591 8.65801C2.53132 8.58139 2.4192 8.43952 2.38038 8.27141C2.34157 8.10329 2.38014 7.92663 2.4855 7.78999C2.74177 7.45751 2.75776 6.99873 2.52527 6.64921C2.42975 6.50556 2.40364 6.32666 2.4541 6.1617C2.50456 5.99673 2.62628 5.86306 2.78581 5.79742C3.17403 5.63763 3.4173 5.24826 3.39068 4.82928C3.37974 4.65709 3.44655 4.48906 3.57274 4.37139C3.69893 4.25372 3.87121 4.1988 4.04222 4.22172C4.45823 4.27741 4.8635 4.06192 5.04997 3.6859C5.12659 3.5313 5.26846 3.41919 5.43657 3.38037C5.60469 3.34156 5.78135 3.38013 5.91799 3.48549C6.25047 3.74176 6.70925 3.75775 7.05877 3.52525C7.20242 3.42974 7.38132 3.40362 7.54628 3.45408C7.71125 3.50454 7.84492 3.62627 7.91056 3.7858C8.07035 4.17402 8.45972 4.41729 8.8787 4.39067C9.05089 4.37973 9.21892 4.44654 9.33659 4.57272C9.45426 4.69891 9.50918 4.8712 9.48626 5.0422C9.43057 5.45822 9.64606 5.86349 10.0221 6.04995C10.1767 6.12657 10.2888 6.26844 10.3276 6.43656C10.3664 6.60468 10.3278 6.78134 10.2225 6.91798C9.96622 7.25045 9.95023 7.70924 10.1827 8.05875C10.2782 8.20241 10.3044 8.3813 10.2539 8.54627C10.2034 8.71123 10.0817 8.84491 9.92218 8.91055C9.53396 9.07034 9.29069 9.45971 9.31731 9.87868C9.32825 10.0509 9.26144 10.2189 9.13525 10.3366C9.00907 10.4542 8.83678 10.5092 8.66577 10.4862C8.24976 10.4306 7.84449 10.646 7.65803 11.0221Z" fill="#E62EA3"/>
<g filter="url(#filter0_b_115_9323)">
<path fill-rule="evenodd" clip-rule="evenodd" d="M8.47043 12.5624C8.3302 12.6629 8.1523 12.6953 7.98564 12.6506C7.81898 12.606 7.68111 12.489 7.60993 12.3318C7.43668 11.9495 7.0391 11.72 6.62135 11.7612C6.44967 11.778 6.27945 11.7171 6.15749 11.5951C6.03552 11.4731 5.97464 11.3029 5.99158 11.1312C6.03275 10.7134 5.80316 10.3158 5.42073 10.1426C5.26356 10.0715 5.14656 9.93358 5.10191 9.76692C5.05725 9.60026 5.08964 9.42235 5.19017 9.28213C5.43464 8.94095 5.43464 8.48196 5.19017 8.14078C5.08964 8.00055 5.05725 7.82265 5.10191 7.65599C5.14656 7.48933 5.26356 7.35146 5.42073 7.28028C5.80309 7.10703 6.0326 6.70945 5.99141 6.2917C5.97451 6.12002 6.03544 5.9498 6.15744 5.82784C6.27944 5.70587 6.44967 5.64499 6.62135 5.66193C7.03914 5.7031 7.43674 5.47351 7.60993 5.09108C7.68111 4.93391 7.81898 4.81691 7.98564 4.77226C8.1523 4.7276 8.3302 4.75999 8.47043 4.86052C8.81161 5.10499 9.2706 5.10499 9.61178 4.86052C9.75201 4.75999 9.92991 4.7276 10.0966 4.77226C10.2632 4.81691 10.4011 4.93391 10.4723 5.09108C10.6455 5.47344 11.0431 5.70295 11.4609 5.66175C11.6325 5.64486 11.8028 5.70579 11.9247 5.82779C12.0467 5.94979 12.1076 6.12002 12.0906 6.2917C12.0495 6.70949 12.279 7.10708 12.6615 7.28028C12.8186 7.35146 12.9356 7.48933 12.9803 7.65599C13.025 7.82265 12.9926 8.00055 12.892 8.14078C12.6476 8.48196 12.6476 8.94095 12.892 9.28213C12.9926 9.42235 13.025 9.60026 12.9803 9.76692C12.9356 9.93358 12.8186 10.0715 12.6615 10.1426C12.2791 10.3159 12.0496 10.7135 12.0908 11.1312C12.1077 11.3029 12.0468 11.4731 11.9248 11.5951C11.8028 11.717 11.6325 11.7779 11.4609 11.761C11.0431 11.7198 10.6455 11.9494 10.4723 12.3318C10.4011 12.489 10.2632 12.606 10.0966 12.6506C9.92991 12.6953 9.75201 12.6629 9.61178 12.5624C9.2706 12.3179 8.81161 12.3179 8.47043 12.5624Z" fill="white" fill-opacity="0.06"/>
</g>
<path d="M7.64768 8.87547H6.90406V9.33116H7.76285V9.64913H6.54102V7.81638H7.73531V8.13186H6.90406V8.5625H7.64768V8.87547ZM8.90706 9.57402C8.82194 9.64412 8.70343 9.67918 8.55153 9.67918C8.41132 9.67918 8.29823 9.64204 8.21227 9.56776C8.12631 9.49348 8.08333 9.36037 8.08333 9.16841V8.64513H7.85298V8.35219H8.08333V7.95409H8.43135V8.35219H8.82194V8.64513H8.43135V9.11082C8.43135 9.19762 8.44637 9.26355 8.47642 9.30862C8.50646 9.35369 8.55487 9.37622 8.62164 9.37622C8.68006 9.37622 8.73514 9.3587 8.78688 9.32364L8.90706 9.57402ZM9.62564 9.37622C9.72579 9.37622 9.80591 9.32698 9.866 9.2285L10.1314 9.38373C10.0897 9.48055 10.0237 9.55399 9.9336 9.60406C9.84347 9.65414 9.74082 9.67918 9.62564 9.67918C9.51047 9.67918 9.40281 9.65289 9.30266 9.60031C9.20251 9.54773 9.12155 9.47011 9.05979 9.36746C8.99803 9.26481 8.96715 9.14254 8.96715 9.00066C8.96715 8.85711 8.99803 8.73401 9.05979 8.63136C9.12155 8.5287 9.20251 8.45109 9.30266 8.39851C9.40281 8.34593 9.51047 8.31964 9.62564 8.31964C9.74082 8.31964 9.84347 8.34468 9.9336 8.39475C10.0237 8.44483 10.0897 8.51827 10.1314 8.61508L9.866 8.77031C9.80758 8.6735 9.72746 8.6251 9.62564 8.6251C9.53551 8.6251 9.46332 8.6589 9.40907 8.7265C9.35482 8.7941 9.3277 8.88549 9.3277 9.00066C9.3277 9.11416 9.35524 9.20513 9.41032 9.27357C9.4654 9.342 9.53718 9.37622 9.62564 9.37622ZM11.193 7.74377H11.541V9.64913H11.2356C11.2272 9.55232 11.2205 9.48722 11.2155 9.45384C11.1705 9.52895 11.1116 9.58529 11.039 9.62284C10.9664 9.6604 10.8875 9.67918 10.8024 9.67918C10.6956 9.67918 10.5979 9.65247 10.5095 9.59906C10.421 9.54564 10.3501 9.46761 10.2966 9.36496C10.2432 9.2623 10.2165 9.14087 10.2165 9.00066C10.2165 8.85878 10.2432 8.73651 10.2966 8.63386C10.3501 8.53121 10.421 8.45317 10.5095 8.39976C10.5979 8.34634 10.6956 8.31964 10.8024 8.31964C10.8809 8.31964 10.9539 8.33549 11.0215 8.36721C11.0891 8.39892 11.1463 8.44733 11.193 8.51243V7.74377ZM10.8825 9.38123C10.9693 9.38123 11.0428 9.34952 11.1029 9.28609C11.1629 9.22266 11.193 9.12752 11.193 9.00066C11.193 8.87547 11.1629 8.78242 11.1029 8.72149C11.0428 8.66057 10.9693 8.6301 10.8825 8.6301C10.7907 8.6301 10.7169 8.66265 10.6609 8.72775C10.605 8.79285 10.5771 8.88382 10.5771 9.00066C10.5771 9.1175 10.605 9.21014 10.6609 9.27858C10.7169 9.34701 10.7907 9.38123 10.8825 9.38123Z" fill="white"/>
<defs>
<filter id="filter0_b_115_9323" x="-0.917725" y="-1.24738" width="19.9177" height="19.9177" filterUnits="userSpaceOnUse" color-interpolation-filters="sRGB">
<feFlood flood-opacity="0" result="BackgroundImageFix"/>
<feGaussianBlur in="BackgroundImageFix" stdDeviation="3"/>
<feComposite in2="SourceAlpha" operator="in" result="effect1_backgroundBlur_115_9323"/>
<feBlend mode="normal" in="SourceGraphic" in2="effect1_backgroundBlur_115_9323" result="shape"/>
</filter>
</defs>
</svg>
