<svg width="16" height="16" viewBox="0 0 16 16" fill="none" xmlns="http://www.w3.org/2000/svg">
<rect width="16" height="16" rx="2" fill="white"/>
<path d="M11.4255 3H3.70213C3.31435 3 3 3.31435 3 3.70213V11.8936C3 12.2814 3.31435 12.5957 3.70213 12.5957H11.4255C11.8133 12.5957 12.1277 12.2814 12.1277 11.8936V3.70213C12.1277 3.31435 11.8133 3 11.4255 3Z" fill="#5C66F9"/>
<path d="M8.85113 5.57446H5.57453C5.31601 5.57446 5.10645 5.78403 5.10645 6.04255C5.10645 6.30106 5.31601 6.51063 5.57453 6.51063H8.85113C9.10964 6.51063 9.31921 6.30106 9.31921 6.04255C9.31921 5.78403 9.10964 5.57446 8.85113 5.57446Z" fill="url(#paint0_linear_79_3377)"/>
<path d="M6.74474 7.44684H5.57453C5.31601 7.44684 5.10645 7.65641 5.10645 7.91492C5.10645 8.17344 5.31601 8.38301 5.57453 8.38301H6.74474C7.00326 8.38301 7.21283 8.17344 7.21283 7.91492C7.21283 7.65641 7.00326 7.44684 6.74474 7.44684Z" fill="url(#paint1_linear_79_3377)"/>
<g filter="url(#filter0_b_79_3377)">
<path d="M10.6063 14.2341C12.4805 14.2341 13.9999 12.7147 13.9999 10.8405C13.9999 8.96621 12.4805 7.44684 10.6063 7.44684C8.73202 7.44684 7.21265 8.96621 7.21265 10.8405C7.21265 12.7147 8.73202 14.2341 10.6063 14.2341Z" fill="white" fill-opacity="0.06"/>
</g>
<path d="M8.34717 10.0091H9.57519V10.3361H8.72047V10.8175H9.48508V11.1419H8.72047V11.8936H8.34717V10.0091ZM9.72966 10.0091H11.2486V10.3412H10.6771V11.8936H10.3012V10.3412H9.72966V10.0091ZM12.1188 10.0091C12.2681 10.0091 12.3985 10.0348 12.5101 10.0863C12.6216 10.1378 12.7079 10.2103 12.7688 10.3039C12.8297 10.3974 12.8602 10.5068 12.8602 10.6321C12.8602 10.7557 12.8297 10.8642 12.7688 10.9578C12.7079 11.0513 12.6216 11.1234 12.5101 11.174C12.3985 11.2247 12.2681 11.25 12.1188 11.25H11.8433V11.8936H11.47V10.0091H12.1188ZM12.0776 10.9333C12.1943 10.9333 12.2878 10.908 12.3582 10.8574C12.4286 10.8067 12.4637 10.7317 12.4637 10.6321C12.4637 10.5326 12.4286 10.4566 12.3582 10.4043C12.2878 10.3519 12.1943 10.3258 12.0776 10.3258H11.8433V10.9333H12.0776Z" fill="url(#paint2_linear_79_3377)"/>
<defs>
<filter id="filter0_b_79_3377" x="1.21265" y="1.44684" width="18.7874" height="18.7872" filterUnits="userSpaceOnUse" color-interpolation-filters="sRGB">
<feFlood flood-opacity="0" result="BackgroundImageFix"/>
<feGaussianBlur in="BackgroundImageFix" stdDeviation="3"/>
<feComposite in2="SourceAlpha" operator="in" result="effect1_backgroundBlur_79_3377"/>
<feBlend mode="normal" in="SourceGraphic" in2="effect1_backgroundBlur_79_3377" result="shape"/>
</filter>
<linearGradient id="paint0_linear_79_3377" x1="7.21283" y1="5.57446" x2="7.21283" y2="6.51063" gradientUnits="userSpaceOnUse">
<stop stop-color="white"/>
<stop offset="0.5" stop-color="white" stop-opacity="0.9"/>
<stop offset="1" stop-color="white" stop-opacity="0.2"/>
</linearGradient>
<linearGradient id="paint1_linear_79_3377" x1="6.15964" y1="7.44684" x2="6.15964" y2="8.38301" gradientUnits="userSpaceOnUse">
<stop stop-color="white"/>
<stop offset="0.5" stop-color="white" stop-opacity="0.9"/>
<stop offset="1" stop-color="white" stop-opacity="0.2"/>
</linearGradient>
<linearGradient id="paint2_linear_79_3377" x1="10.6037" y1="10.0091" x2="9.20214" y2="12.7128" gradientUnits="userSpaceOnUse">
<stop stop-color="white"/>
<stop offset="0.5" stop-color="white" stop-opacity="0.9"/>
<stop offset="1" stop-color="white" stop-opacity="0.2"/>
</linearGradient>
</defs>
</svg>
