<svg width="16" height="16" viewBox="0 0 16 16" fill="none" xmlns="http://www.w3.org/2000/svg">
<rect width="16" height="16" rx="2" fill="white"/>
<path d="M8.33635 2.94261L2.87398 5.847C2.39129 6.10365 2.20805 6.703 2.4647 7.18569L5.3691 12.6481C5.62574 13.1307 6.22509 13.314 6.70778 13.0573L12.1701 10.1529C12.6528 9.89629 12.8361 9.29694 12.5794 8.81425L9.67503 3.35189C9.41838 2.8692 8.81903 2.68596 8.33635 2.94261Z" fill="#18CCF0"/>
<g filter="url(#filter0_b_130_3616)">
<path d="M13.0101 5.35583H6.82358C6.27691 5.35583 5.83374 5.799 5.83374 6.34568V12.5322C5.83374 13.0789 6.27691 13.522 6.82358 13.522H13.0101C13.5568 13.522 13.9999 13.0789 13.9999 12.5322V6.34568C13.9999 5.799 13.5568 5.35583 13.0101 5.35583Z" fill="white" fill-opacity="0.06"/>
</g>
<path d="M11.9496 7.33551H8.13164C7.95592 7.33551 7.81348 7.47796 7.81348 7.65367V11.4716C7.81348 11.6474 7.95592 11.7898 8.13164 11.7898H11.9496C12.1253 11.7898 12.2678 11.6474 12.2678 11.4716V7.65367C12.2678 7.47796 12.1253 7.33551 11.9496 7.33551ZM9.40429 10.2563C9.33505 10.2992 9.24534 10.2886 9.18794 10.2308L8.61843 9.68992C8.61843 9.68992 8.61843 9.66447 8.59298 9.64856C8.56125 9.58684 8.57142 9.51189 8.61843 9.46084V9.44175L9.16567 8.90088C9.22605 8.83004 9.33185 8.82017 9.40429 8.8786C9.43951 8.90823 9.45985 8.9519 9.45985 8.99792C9.45985 9.04394 9.43951 9.08761 9.40429 9.11723L8.94932 9.56266L9.40429 10.0017C9.4385 10.0352 9.45777 10.0811 9.45777 10.129C9.45777 10.1769 9.4385 10.2227 9.40429 10.2563ZM10.4765 8.9836L9.99926 10.199C9.98069 10.2551 9.93081 10.295 9.872 10.3008C9.8138 10.3028 9.75818 10.2768 9.72246 10.2308C9.68755 10.1855 9.67797 10.1256 9.69701 10.0717L10.1615 8.88815C10.176 8.84744 10.2073 8.81496 10.2474 8.79906C10.2832 8.78505 10.323 8.78505 10.3588 8.79906C10.3997 8.80946 10.434 8.83743 10.4524 8.87547C10.4708 8.91352 10.4715 8.95775 10.4542 8.99632L10.4765 8.9836ZM10.9633 10.2181C10.9344 10.2488 10.8941 10.2663 10.8519 10.2663C10.8098 10.2663 10.7695 10.2488 10.7406 10.2181C10.6799 10.1562 10.6799 10.0572 10.7406 9.99536L11.1701 9.56266L10.7247 9.12359C10.6749 9.08624 10.6514 9.02328 10.6647 8.96246C10.6779 8.90164 10.7254 8.85414 10.7863 8.84089C10.8471 8.82764 10.91 8.85108 10.9474 8.90088L11.5042 9.4513C11.5151 9.46218 11.5238 9.47517 11.5296 9.48948C11.5615 9.55331 11.5514 9.6301 11.5042 9.68356L10.9633 10.2181Z" fill="url(#paint0_linear_130_3616)"/>
<defs>
<filter id="filter0_b_130_3616" x="-0.16626" y="-0.644165" width="20.1663" height="20.1662" filterUnits="userSpaceOnUse" color-interpolation-filters="sRGB">
<feFlood flood-opacity="0" result="BackgroundImageFix"/>
<feGaussianBlur in="BackgroundImageFix" stdDeviation="3"/>
<feComposite in2="SourceAlpha" operator="in" result="effect1_backgroundBlur_130_3616"/>
<feBlend mode="normal" in="SourceGraphic" in2="effect1_backgroundBlur_130_3616" result="shape"/>
</filter>
<linearGradient id="paint0_linear_130_3616" x1="10.0406" y1="7.33551" x2="7.81348" y2="12.6004" gradientUnits="userSpaceOnUse">
<stop stop-color="white"/>
<stop offset="0.5" stop-color="white" stop-opacity="0.9"/>
<stop offset="1" stop-color="white" stop-opacity="0.2"/>
</linearGradient>
</defs>
</svg>
