<svg width="16" height="16" viewBox="0 0 16 16" fill="none" xmlns="http://www.w3.org/2000/svg">
<rect width="16" height="16" rx="2" fill="white"/>
<path d="M1.5 4.63043C1.5 3.52586 2.39543 2.63043 3.5 2.63043H9.95652C11.0611 2.63043 11.9565 3.52586 11.9565 4.63043V8.54347C11.9565 9.64804 11.0611 10.5435 9.95652 10.5435H8.98417C8.53003 10.5435 8.08941 10.698 7.73478 10.9817L7.19889 11.4105C7.00866 11.5626 6.73644 11.5556 6.55436 11.3937L6.16616 11.0487C5.80005 10.7232 5.32726 10.5435 4.83743 10.5435H3.5C2.39543 10.5435 1.5 9.64805 1.5 8.54348V4.63043Z" fill="#18CCF0"/>
<g filter="url(#filter0_b_41_3064)">
<path d="M4.04346 6.32611C4.04346 5.22154 4.93889 4.32611 6.04346 4.32611H12.5C13.6045 4.32611 14.5 5.22154 14.5 6.32611V10.2392C14.5 11.3437 13.6045 12.2392 12.5 12.2392H11.5276C11.0735 12.2392 10.6329 12.3937 10.2782 12.6774L9.74234 13.1061C9.55211 13.2583 9.27989 13.2513 9.09781 13.0894L8.70961 12.7443C8.34351 12.4189 7.87071 12.2392 7.38088 12.2392H6.04346C4.93889 12.2392 4.04346 11.3437 4.04346 10.2392V6.32611Z" fill="white" fill-opacity="0.06"/>
</g>
<path d="M10.618 6.96729C10.9978 6.96729 11.2962 7.04415 11.5087 7.20242C11.7348 7.36972 11.866 7.63198 11.8976 7.98468H11.3731C11.3279 7.78572 11.242 7.64102 11.1244 7.55511C11.0068 7.46468 10.826 7.42398 10.5908 7.42398C10.3873 7.42398 10.2336 7.45111 10.1251 7.50989C9.98943 7.57772 9.92613 7.69076 9.92613 7.8445C9.92613 7.98015 9.99848 8.0932 10.1522 8.17459C10.22 8.21076 10.4054 8.27859 10.7039 8.37355C11.1425 8.5092 11.4228 8.61772 11.5494 8.69007C11.8298 8.85737 11.97 9.08798 11.97 9.38642C11.97 9.67581 11.8569 9.90642 11.6308 10.0737C11.4047 10.2365 11.0837 10.3224 10.6722 10.3224C10.2743 10.3224 9.9623 10.2455 9.74074 10.0918C9.46943 9.90189 9.32022 9.60346 9.29761 9.19198H9.82213C9.8583 9.43615 9.94422 9.6125 10.0844 9.7165C10.211 9.80694 10.4054 9.85668 10.6722 9.85668C10.9073 9.85668 11.0973 9.81598 11.2329 9.73911C11.3686 9.65772 11.4409 9.55372 11.4409 9.41807C11.4409 9.24624 11.3369 9.11059 11.138 9.01111C11.0747 8.97946 10.8667 8.90711 10.5094 8.79859C10.1115 8.67198 9.86282 8.58155 9.76787 8.52729C9.51917 8.37807 9.39709 8.16102 9.39709 7.87615C9.39709 7.59129 9.51465 7.3652 9.75882 7.20242C9.98491 7.04415 10.2698 6.96729 10.618 6.96729Z" fill="url(#paint0_linear_41_3064)"/>
<path d="M8.31618 7.03058H8.84522V9.21458C8.84522 9.58536 8.76835 9.85667 8.61461 10.0375C8.44279 10.2274 8.17148 10.3224 7.79618 10.3224C7.47061 10.3224 7.22192 10.232 7.05461 10.0511C6.88279 9.87023 6.79688 9.62154 6.79688 9.30501V9.20101H7.32592V9.30049C7.32592 9.67127 7.48418 9.85667 7.80522 9.85667C7.98157 9.85667 8.1127 9.8024 8.19409 9.6984C8.27548 9.5944 8.31618 9.4271 8.31618 9.19649V7.03058Z" fill="url(#paint1_linear_41_3064)"/>
<defs>
<filter id="filter0_b_41_3064" x="-1.95654" y="-1.67389" width="22.4565" height="20.8896" filterUnits="userSpaceOnUse" color-interpolation-filters="sRGB">
<feFlood flood-opacity="0" result="BackgroundImageFix"/>
<feGaussianBlur in="BackgroundImageFix" stdDeviation="3"/>
<feComposite in2="SourceAlpha" operator="in" result="effect1_backgroundBlur_41_3064"/>
<feBlend mode="normal" in="SourceGraphic" in2="effect1_backgroundBlur_41_3064" result="shape"/>
</filter>
<linearGradient id="paint0_linear_41_3064" x1="11.7487" y1="6.96728" x2="7.31643" y2="8.49037" gradientUnits="userSpaceOnUse">
<stop stop-color="white"/>
<stop offset="0.5" stop-color="white" stop-opacity="0.9"/>
<stop offset="1" stop-color="white" stop-opacity="0.2"/>
</linearGradient>
<linearGradient id="paint1_linear_41_3064" x1="8.67561" y1="7.03058" x2="5.13249" y2="7.98178" gradientUnits="userSpaceOnUse">
<stop stop-color="white"/>
<stop offset="0.5" stop-color="white" stop-opacity="0.9"/>
<stop offset="1" stop-color="white" stop-opacity="0.2"/>
</linearGradient>
</defs>
</svg>
