<svg width="16" height="16" viewBox="0 0 16 16" fill="none" xmlns="http://www.w3.org/2000/svg">
<rect width="16" height="16" rx="2" fill="white"/>
<path fill-rule="evenodd" clip-rule="evenodd" d="M7.65803 11.0221C7.58141 11.1767 7.43954 11.2888 7.27142 11.3276C7.1033 11.3664 6.92664 11.3278 6.79 11.2225C6.45753 10.9662 5.99874 10.9502 5.64923 11.1827C5.50557 11.2782 5.32668 11.3043 5.16171 11.2539C4.99675 11.2034 4.86307 11.0817 4.79743 10.9222C4.63764 10.5339 4.24827 10.2907 3.8293 10.3173C3.6571 10.3282 3.48907 10.2614 3.3714 10.1352C3.25373 10.0091 3.19881 9.83677 3.22174 9.66576C3.27742 9.24975 3.06194 8.84448 2.68591 8.65801C2.53132 8.58139 2.4192 8.43952 2.38038 8.27141C2.34157 8.10329 2.38014 7.92663 2.4855 7.78999C2.74177 7.45751 2.75776 6.99873 2.52527 6.64921C2.42975 6.50556 2.40364 6.32666 2.4541 6.1617C2.50456 5.99673 2.62628 5.86306 2.78581 5.79742C3.17403 5.63763 3.4173 5.24826 3.39068 4.82928C3.37974 4.65709 3.44655 4.48906 3.57274 4.37139C3.69893 4.25372 3.87121 4.1988 4.04222 4.22172C4.45823 4.27741 4.8635 4.06192 5.04997 3.6859C5.12659 3.5313 5.26846 3.41919 5.43657 3.38037C5.60469 3.34156 5.78135 3.38013 5.91799 3.48549C6.25047 3.74176 6.70925 3.75775 7.05877 3.52525C7.20242 3.42974 7.38132 3.40362 7.54628 3.45408C7.71125 3.50454 7.84492 3.62627 7.91056 3.7858C8.07035 4.17402 8.45972 4.41729 8.8787 4.39067C9.05089 4.37973 9.21892 4.44654 9.33659 4.57272C9.45426 4.69891 9.50918 4.8712 9.48626 5.0422C9.43057 5.45822 9.64606 5.86349 10.0221 6.04995C10.1767 6.12657 10.2888 6.26844 10.3276 6.43656C10.3664 6.60468 10.3278 6.78134 10.2225 6.91798C9.96622 7.25045 9.95023 7.70924 10.1827 8.05875C10.2782 8.20241 10.3044 8.3813 10.2539 8.54627C10.2034 8.71123 10.0817 8.84491 9.92218 8.91055C9.53396 9.07034 9.29069 9.45971 9.31731 9.87868C9.32825 10.0509 9.26144 10.2189 9.13525 10.3366C9.00907 10.4542 8.83678 10.5092 8.66577 10.4862C8.24976 10.4306 7.84449 10.646 7.65803 11.0221Z" fill="#E62EA3"/>
<g filter="url(#filter0_b_79_3181)">
<path fill-rule="evenodd" clip-rule="evenodd" d="M8.47043 12.5624C8.3302 12.6629 8.1523 12.6953 7.98564 12.6506C7.81898 12.606 7.68111 12.489 7.60993 12.3318C7.43668 11.9495 7.0391 11.72 6.62135 11.7612C6.44967 11.778 6.27945 11.7171 6.15749 11.5951C6.03552 11.4731 5.97464 11.3029 5.99158 11.1312C6.03275 10.7134 5.80316 10.3158 5.42073 10.1426C5.26356 10.0715 5.14656 9.93358 5.10191 9.76692C5.05725 9.60026 5.08964 9.42235 5.19017 9.28213C5.43464 8.94095 5.43464 8.48196 5.19017 8.14078C5.08964 8.00055 5.05725 7.82265 5.10191 7.65599C5.14656 7.48933 5.26356 7.35146 5.42073 7.28028C5.80309 7.10703 6.0326 6.70945 5.99141 6.2917C5.97451 6.12002 6.03544 5.9498 6.15744 5.82784C6.27944 5.70587 6.44967 5.64499 6.62135 5.66193C7.03914 5.7031 7.43674 5.47351 7.60993 5.09108C7.68111 4.93391 7.81898 4.81691 7.98564 4.77226C8.1523 4.7276 8.3302 4.75999 8.47043 4.86052C8.81161 5.10499 9.2706 5.10499 9.61178 4.86052C9.75201 4.75999 9.92991 4.7276 10.0966 4.77226C10.2632 4.81691 10.4011 4.93391 10.4723 5.09108C10.6455 5.47344 11.0431 5.70295 11.4609 5.66175C11.6325 5.64486 11.8028 5.70579 11.9247 5.82779C12.0467 5.94979 12.1076 6.12002 12.0906 6.2917C12.0495 6.70949 12.279 7.10708 12.6615 7.28028C12.8186 7.35146 12.9356 7.48933 12.9803 7.65599C13.025 7.82265 12.9926 8.00055 12.892 8.14078C12.6476 8.48196 12.6476 8.94095 12.892 9.28213C12.9926 9.42235 13.025 9.60026 12.9803 9.76692C12.9356 9.93358 12.8186 10.0715 12.6615 10.1426C12.2791 10.3159 12.0496 10.7135 12.0908 11.1312C12.1077 11.3029 12.0468 11.4731 11.9248 11.5951C11.8028 11.717 11.6325 11.7779 11.4609 11.761C11.0431 11.7198 10.6455 11.9494 10.4723 12.3318C10.4011 12.489 10.2632 12.606 10.0966 12.6506C9.92991 12.6953 9.75201 12.6629 9.61178 12.5624C9.2706 12.3179 8.81161 12.3179 8.47043 12.5624Z" fill="white" fill-opacity="0.06"/>
</g>
<path d="M6.18092 7.73737L7.01656 8.87665V7.73737H7.33433V9.46042H7.05657L6.21859 8.31878V9.46042H5.90552V7.73737H6.18092ZM8.18174 8.2105C8.34651 8.2105 8.47519 8.25719 8.56778 8.35056C8.66036 8.44393 8.70666 8.57692 8.70666 8.74954V9.46042H8.43125C8.42968 9.44787 8.42772 9.42707 8.42537 9.39804C8.42301 9.36901 8.41948 9.34351 8.41477 9.32154C8.37868 9.37803 8.33199 9.42001 8.27472 9.44747C8.21744 9.47494 8.148 9.48867 8.0664 9.48867C7.98166 9.48867 7.90437 9.47376 7.83454 9.44394C7.76471 9.41413 7.70939 9.37058 7.66859 9.3133C7.62779 9.25602 7.60739 9.18815 7.60739 9.10969C7.60739 9.02809 7.63053 8.95708 7.67683 8.89666C7.72312 8.83624 7.7855 8.78956 7.86396 8.7566C7.94242 8.72365 8.02873 8.70717 8.12289 8.70717C8.20763 8.70717 8.29472 8.7213 8.38417 8.74954C8.37947 8.56908 8.30257 8.47884 8.15349 8.47884C8.03423 8.47884 7.94713 8.5322 7.89221 8.63891L7.65917 8.50474C7.70311 8.41372 7.77059 8.34193 7.86161 8.28935C7.95262 8.23678 8.05933 8.2105 8.18174 8.2105ZM8.38417 8.9661C8.30571 8.94727 8.23745 8.93785 8.17938 8.93785C8.10249 8.93785 8.04286 8.95159 8.00049 8.97905C7.95812 9.00651 7.93693 9.04535 7.93693 9.09557C7.93693 9.14107 7.9538 9.17638 7.98754 9.20149C8.02128 9.2266 8.06483 9.23915 8.11818 9.23915C8.1888 9.23915 8.25079 9.21914 8.30414 9.17913C8.3575 9.13911 8.38417 9.0838 8.38417 9.01318V8.9661ZM9.54229 9.20384C9.63645 9.20384 9.71177 9.15755 9.76826 9.06497L10.0178 9.21091C9.97855 9.30192 9.91656 9.37097 9.83182 9.41805C9.74708 9.46513 9.65057 9.48867 9.54229 9.48867C9.43401 9.48867 9.33279 9.46395 9.23864 9.41452C9.14448 9.36509 9.06837 9.29212 9.01031 9.19561C8.95225 9.0991 8.92321 8.98415 8.92321 8.85076C8.92321 8.7158 8.95225 8.60007 9.01031 8.50356C9.06837 8.40705 9.14448 8.33408 9.23864 8.28465C9.33279 8.23522 9.43401 8.2105 9.54229 8.2105C9.65057 8.2105 9.74708 8.23404 9.83182 8.28112C9.91656 8.32819 9.97855 8.39724 10.0178 8.48826L9.76826 8.6342C9.71334 8.54318 9.63802 8.49768 9.54229 8.49768C9.45755 8.49768 9.38968 8.52945 9.33868 8.59301C9.28768 8.65656 9.26218 8.74248 9.26218 8.85076C9.26218 8.95747 9.28807 9.04299 9.33986 9.10733C9.39164 9.17167 9.45912 9.20384 9.54229 9.20384ZM10.0978 8.85076C10.0978 8.72365 10.1265 8.61145 10.1837 8.51415C10.241 8.41686 10.3175 8.34193 10.4132 8.28935C10.509 8.23678 10.6125 8.2105 10.7239 8.2105C10.8338 8.2105 10.9362 8.23678 11.0311 8.28935C11.1261 8.34193 11.2022 8.41686 11.2595 8.51415C11.3167 8.61145 11.3454 8.72365 11.3454 8.85076C11.3454 8.97787 11.3167 9.09007 11.2595 9.18737C11.2022 9.28466 11.1261 9.3592 11.0311 9.41099C10.9362 9.46277 10.8338 9.48867 10.7239 9.48867C10.6125 9.48867 10.509 9.46277 10.4132 9.41099C10.3175 9.3592 10.241 9.28466 10.1837 9.18737C10.1265 9.09007 10.0978 8.97787 10.0978 8.85076ZM10.4368 8.85076C10.4368 8.95904 10.4638 9.04496 10.518 9.10851C10.5721 9.17207 10.64 9.20384 10.7216 9.20384C10.8032 9.20384 10.8707 9.17207 10.924 9.10851C10.9774 9.04496 11.0041 8.95904 11.0041 8.85076C11.0041 8.74248 10.9774 8.65617 10.924 8.59183C10.8707 8.52749 10.8032 8.49532 10.7216 8.49532C10.64 8.49532 10.5721 8.52749 10.518 8.59183C10.4638 8.65617 10.4368 8.74248 10.4368 8.85076ZM12.487 9.09792C12.487 9.21875 12.4403 9.31409 12.347 9.38392C12.2536 9.45375 12.1324 9.48867 11.9833 9.48867C11.8546 9.48867 11.7436 9.4612 11.6502 9.40628C11.5568 9.35136 11.4937 9.27525 11.4607 9.17795L11.6985 9.03907C11.722 9.09713 11.7589 9.14225 11.8091 9.17442C11.8593 9.20659 11.9182 9.22268 11.9856 9.22268C12.0359 9.22268 12.0759 9.21326 12.1057 9.19443C12.1355 9.1756 12.1504 9.14892 12.1504 9.1144C12.1504 9.07517 12.1308 9.04496 12.0916 9.02377C12.0523 9.00259 11.9911 8.98022 11.908 8.95669C11.8248 8.93158 11.7569 8.90725 11.7043 8.88371C11.6518 8.86018 11.6063 8.82604 11.5678 8.78132C11.5294 8.7366 11.5101 8.67814 11.5101 8.60595C11.5101 8.52435 11.5325 8.45374 11.5772 8.3941C11.622 8.33447 11.682 8.28896 11.7573 8.25758C11.8326 8.22619 11.915 8.2105 12.0045 8.2105C12.1269 8.2105 12.2304 8.23678 12.3152 8.28935C12.3999 8.34193 12.4533 8.41137 12.4752 8.49768L12.2375 8.63185C12.1904 8.52984 12.1112 8.47884 11.9998 8.47884C11.9527 8.47884 11.915 8.48787 11.8868 8.50591C11.8585 8.52396 11.8444 8.54946 11.8444 8.58242C11.8444 8.62008 11.8632 8.64872 11.9009 8.66833C11.9386 8.68795 11.9974 8.70874 12.0774 8.73071C12.1622 8.75425 12.232 8.77779 12.2869 8.80133C12.3419 8.82487 12.3889 8.86057 12.4282 8.90843C12.4674 8.95629 12.487 9.01946 12.487 9.09792Z" fill="white"/>
<defs>
<filter id="filter0_b_79_3181" x="-0.917725" y="-1.24738" width="19.9177" height="19.9177" filterUnits="userSpaceOnUse" color-interpolation-filters="sRGB">
<feFlood flood-opacity="0" result="BackgroundImageFix"/>
<feGaussianBlur in="BackgroundImageFix" stdDeviation="3"/>
<feComposite in2="SourceAlpha" operator="in" result="effect1_backgroundBlur_79_3181"/>
<feBlend mode="normal" in="SourceGraphic" in2="effect1_backgroundBlur_79_3181" result="shape"/>
</filter>
</defs>
</svg>
