<svg width="16" height="16" viewBox="0 0 16 16" fill="none" xmlns="http://www.w3.org/2000/svg">
<rect width="16" height="16" rx="2" fill="white"/>
<path fill-rule="evenodd" clip-rule="evenodd" d="M10.896 5.1172L8.98432 3.56192C8.71894 3.33693 8.3303 3.2774 8.00625 3.39535L3.6316 4.98759C3.28955 5.11209 3.0481 5.40095 2.98943 5.74389L2.52473 8.16408C2.43789 8.59766 2.64693 9.00395 3.02678 9.20737L7.76272 11.7446C8.0138 11.8743 8.31105 11.9068 8.58109 11.8085C8.85113 11.7102 9.06441 11.512 9.16692 11.2335L11.164 6.24567C11.3487 5.85687 11.2232 5.40007 10.896 5.1172Z" fill="#18CCF0"/>
<g filter="url(#filter0_b_41_2933)">
<path fill-rule="evenodd" clip-rule="evenodd" d="M14.3677 7.34701L13.1033 5.23171C12.9309 4.92953 12.586 4.74066 12.2412 4.74066H7.58578C7.22178 4.74066 6.89609 4.92953 6.72367 5.23171L5.45924 7.34701C5.22934 7.72475 5.28682 8.17803 5.57419 8.4991L9.15674 12.5031C9.34832 12.7108 9.61654 12.843 9.90391 12.843C10.1913 12.843 10.4595 12.7297 10.6511 12.5031L14.2336 8.4991C14.5402 8.19691 14.5785 7.72475 14.3677 7.34701Z" fill="white" fill-opacity="0.06"/>
</g>
<path d="M5.80859 7.82107C5.80859 7.65166 5.84248 7.50361 5.91024 7.37692C5.97801 7.25023 6.07045 7.15337 6.18756 7.08634C6.30468 7.01931 6.43542 6.9858 6.57979 6.9858C6.72416 6.9858 6.8549 7.01931 6.97202 7.08634C7.08913 7.15337 7.18194 7.25023 7.25045 7.37692C7.31895 7.50361 7.3532 7.65166 7.3532 7.82107C7.3532 7.99196 7.31895 8.14075 7.25045 8.26744C7.18194 8.39413 7.08913 8.49099 6.97202 8.55802C6.8549 8.62505 6.72416 8.65856 6.57979 8.65856C6.43542 8.65856 6.30468 8.62505 6.18756 8.55802C6.07045 8.49099 5.97801 8.39413 5.91024 8.26744C5.84248 8.14075 5.80859 7.99196 5.80859 7.82107ZM6.14668 7.82107C6.14668 7.92862 6.16473 8.02363 6.20082 8.10613C6.23691 8.18863 6.28774 8.25234 6.35329 8.29727C6.41885 8.3422 6.49435 8.36467 6.57979 8.36467C6.66523 8.36467 6.74073 8.3422 6.80629 8.29727C6.87184 8.25234 6.92267 8.18863 6.95876 8.10613C6.99485 8.02363 7.0129 7.92862 7.0129 7.82107C7.0129 7.71353 6.99485 7.61888 6.95876 7.53712C6.92267 7.45536 6.87184 7.39202 6.80629 7.34709C6.74073 7.30216 6.66523 7.27969 6.57979 7.27969C6.49435 7.27969 6.41885 7.30216 6.35329 7.34709C6.28774 7.39202 6.23691 7.45536 6.20082 7.53712C6.16473 7.61888 6.14668 7.71353 6.14668 7.82107ZM8.27908 7.01452L8.93316 8.63205H8.59286L8.45144 8.26302H7.82166L7.68466 8.63205H7.36425L7.99844 7.01452H8.27908ZM8.34758 7.98901L8.13102 7.42111L7.9211 7.98901H8.34758ZM9.83252 7.4874H10.1397V8.63205H9.86788C9.86198 8.54366 9.85609 8.48399 9.8502 8.45306C9.8119 8.5223 9.76181 8.57386 9.69994 8.60774C9.63806 8.64162 9.56735 8.65856 9.4878 8.65856C9.35964 8.65856 9.25873 8.61732 9.18507 8.53482C9.11141 8.45232 9.07458 8.33152 9.07458 8.17242V7.4874H9.38173V8.07077C9.38173 8.28144 9.4495 8.38677 9.58503 8.38677C9.65869 8.38677 9.71835 8.35804 9.76402 8.30059C9.80969 8.24313 9.83252 8.16285 9.83252 8.05973V7.4874ZM11.2224 8.56575C11.1473 8.62763 11.0427 8.65856 10.9087 8.65856C10.7849 8.65856 10.6851 8.62579 10.6092 8.56023C10.5334 8.49468 10.4954 8.37719 10.4954 8.20778V7.74594H10.2921V7.4874H10.4954V7.13606H10.8026V7.4874H11.1473V7.74594H10.8026V8.15695C10.8026 8.23356 10.8159 8.29175 10.8424 8.33152C10.8689 8.3713 10.9116 8.39119 10.9705 8.39119C11.0221 8.39119 11.0707 8.37572 11.1164 8.34478L11.2224 8.56575ZM12.0179 7.45868C12.1432 7.45868 12.243 7.5003 12.3174 7.58353C12.3918 7.66676 12.429 7.78793 12.429 7.94703V8.63205H12.1218V8.04647C12.1218 7.83728 12.0526 7.73269 11.9141 7.73269C11.8404 7.73269 11.7811 7.76104 11.7362 7.81776C11.6913 7.87448 11.6688 7.9544 11.6688 8.05752V8.63205H11.3617V6.95044H11.6688V7.63988C11.7425 7.51908 11.8588 7.45868 12.0179 7.45868Z" fill="url(#paint0_linear_41_2933)"/>
<path d="M13.1232 6.91608H13.2803V8.66913H13.079V7.1616C12.9685 7.27454 12.831 7.35311 12.6665 7.40222V7.20089C12.7451 7.17879 12.8286 7.14442 12.912 7.09531C12.9955 7.04129 13.0643 6.98237 13.1232 6.91608Z" fill="white"/>
<defs>
<filter id="filter0_b_41_2933" x="-0.682617" y="-1.25934" width="21.1826" height="20.1024" filterUnits="userSpaceOnUse" color-interpolation-filters="sRGB">
<feFlood flood-opacity="0" result="BackgroundImageFix"/>
<feGaussianBlur in="BackgroundImageFix" stdDeviation="3"/>
<feComposite in2="SourceAlpha" operator="in" result="effect1_backgroundBlur_41_2933"/>
<feBlend mode="normal" in="SourceGraphic" in2="effect1_backgroundBlur_41_2933" result="shape"/>
</filter>
<linearGradient id="paint0_linear_41_2933" x1="14.2676" y1="5.69189" x2="4.56928" y2="9.9886" gradientUnits="userSpaceOnUse">
<stop stop-color="white"/>
<stop offset="0.5" stop-color="white" stop-opacity="0.9"/>
<stop offset="1" stop-color="white" stop-opacity="0.2"/>
</linearGradient>
</defs>
</svg>
