<svg width="16" height="16" viewBox="0 0 16 16" fill="none" xmlns="http://www.w3.org/2000/svg">
<rect width="16" height="16" rx="2" fill="white"/>
<path fill-rule="evenodd" clip-rule="evenodd" d="M10.896 5.1172L8.98431 3.56193C8.71893 3.33694 8.33029 3.27741 8.00624 3.39535L3.6316 4.98759C3.28955 5.11209 3.0481 5.40095 2.98943 5.74389L2.52473 8.16408C2.43789 8.59766 2.64692 9.00394 3.02678 9.20737L7.76271 11.7446C8.01379 11.8743 8.31105 11.9067 8.58109 11.8085C8.85113 11.7102 9.0644 11.512 9.16692 11.2335L11.164 6.24567C11.3487 5.85687 11.2232 5.40007 10.896 5.1172Z" fill="#18CCF0"/>
<g filter="url(#filter0_b_41_2955)">
<path fill-rule="evenodd" clip-rule="evenodd" d="M14.3677 7.34701L13.1033 5.23171C12.9309 4.92953 12.586 4.74066 12.2412 4.74066H7.58578C7.22178 4.74066 6.89609 4.92953 6.72367 5.23171L5.45924 7.34701C5.22934 7.72474 5.28682 8.17802 5.57419 8.49909L9.15674 12.5031C9.34832 12.7108 9.61653 12.843 9.9039 12.843C10.1913 12.843 10.4595 12.7297 10.6511 12.5031L14.2336 8.49909C14.5401 8.19691 14.5785 7.72474 14.3677 7.34701Z" fill="white" fill-opacity="0.06"/>
</g>
<path d="M5.80835 7.82107C5.80835 7.65166 5.84223 7.50361 5.91 7.37692C5.97776 7.25023 6.0702 7.15337 6.18732 7.08634C6.30443 7.01931 6.43518 6.9858 6.57955 6.9858C6.72392 6.9858 6.85466 7.01931 6.97177 7.08634C7.08889 7.15337 7.1817 7.25023 7.2502 7.37692C7.3187 7.50361 7.35295 7.65166 7.35295 7.82107C7.35295 7.99196 7.3187 8.14075 7.2502 8.26744C7.1817 8.39413 7.08889 8.49099 6.97177 8.55802C6.85466 8.62505 6.72392 8.65856 6.57955 8.65856C6.43518 8.65856 6.30443 8.62505 6.18732 8.55802C6.0702 8.49099 5.97776 8.39413 5.91 8.26744C5.84223 8.14075 5.80835 7.99196 5.80835 7.82107ZM6.14644 7.82107C6.14644 7.92861 6.16448 8.02363 6.20058 8.10613C6.23667 8.18863 6.28749 8.25234 6.35305 8.29727C6.4186 8.3422 6.4941 8.36467 6.57955 8.36467C6.66499 8.36467 6.74049 8.3422 6.80604 8.29727C6.8716 8.25234 6.92242 8.18863 6.95851 8.10613C6.99461 8.02363 7.01265 7.92861 7.01265 7.82107C7.01265 7.71353 6.99461 7.61888 6.95851 7.53712C6.92242 7.45536 6.8716 7.39202 6.80604 7.34709C6.74049 7.30216 6.66499 7.27969 6.57955 7.27969C6.4941 7.27969 6.4186 7.30216 6.35305 7.34709C6.28749 7.39202 6.23667 7.45536 6.20058 7.53712C6.16448 7.61888 6.14644 7.71353 6.14644 7.82107ZM8.27883 7.01452L8.93291 8.63205H8.59261L8.45119 8.26302H7.82142L7.68441 8.63205H7.364L7.99819 7.01452H8.27883ZM8.34733 7.98901L8.13078 7.42111L7.92085 7.98901H8.34733ZM9.83227 7.4874H10.1394V8.63205H9.86763C9.86173 8.54366 9.85584 8.48399 9.84995 8.45306C9.81165 8.5223 9.76156 8.57386 9.69969 8.60774C9.63782 8.64162 9.5671 8.65856 9.48755 8.65856C9.35939 8.65856 9.25848 8.61731 9.18482 8.53482C9.11116 8.45232 9.07433 8.33152 9.07433 8.17242V7.4874H9.38149V8.07077C9.38149 8.28143 9.44925 8.38677 9.58478 8.38677C9.65844 8.38677 9.7181 8.35804 9.76377 8.30059C9.80944 8.24313 9.83227 8.16285 9.83227 8.05973V7.4874ZM11.2222 8.56575C11.1471 8.62763 11.0425 8.65856 10.9084 8.65856C10.7847 8.65856 10.6849 8.62578 10.609 8.56023C10.5331 8.49467 10.4952 8.37719 10.4952 8.20778V7.74594H10.2919V7.4874H10.4952V7.13606H10.8023V7.4874H11.1471V7.74594H10.8023V8.15695C10.8023 8.23356 10.8156 8.29175 10.8421 8.33152C10.8686 8.3713 10.9114 8.39118 10.9703 8.39118C11.0218 8.39118 11.0705 8.37572 11.1161 8.34478L11.2222 8.56575ZM12.0177 7.45868C12.1429 7.45868 12.2427 7.50029 12.3171 7.58353C12.3915 7.66676 12.4287 7.78793 12.4287 7.94703V8.63205H12.1216V8.04647C12.1216 7.83728 12.0523 7.73268 11.9138 7.73268C11.8402 7.73268 11.7809 7.76104 11.736 7.81776C11.691 7.87448 11.6686 7.95439 11.6686 8.05752V8.63205H11.3614V6.95044H11.6686V7.63988C11.7422 7.51908 11.8586 7.45868 12.0177 7.45868Z" fill="white"/>
<path d="M13.295 7.03357C13.4423 7.03357 13.5629 7.07598 13.6589 7.1608C13.7526 7.24562 13.8017 7.35946 13.8017 7.49785C13.8017 7.63625 13.7482 7.76125 13.6455 7.87285C13.5897 7.93089 13.4803 8.01794 13.3151 8.12955C13.112 8.26571 12.9959 8.38848 12.9669 8.49562H13.804V8.65857H12.7415C12.7415 8.51348 12.7928 8.38178 12.8999 8.26348C12.9624 8.19205 13.0763 8.09607 13.2459 7.98C13.3709 7.89071 13.4535 7.82598 13.4959 7.78134C13.5763 7.69428 13.6187 7.5983 13.6187 7.49562C13.6187 7.39741 13.5897 7.32375 13.5316 7.27018C13.4736 7.2166 13.391 7.18982 13.2883 7.18982C13.179 7.18982 13.0941 7.22553 13.0361 7.30143C12.9736 7.37285 12.9401 7.48 12.9379 7.62062H12.7548C12.7548 7.44205 12.8062 7.29919 12.9044 7.19428C13.0026 7.08714 13.1343 7.03357 13.295 7.03357Z" fill="white"/>
<defs>
<filter id="filter0_b_41_2955" x="-0.682617" y="-1.25934" width="21.1826" height="20.1024" filterUnits="userSpaceOnUse" color-interpolation-filters="sRGB">
<feFlood flood-opacity="0" result="BackgroundImageFix"/>
<feGaussianBlur in="BackgroundImageFix" stdDeviation="3"/>
<feComposite in2="SourceAlpha" operator="in" result="effect1_backgroundBlur_41_2955"/>
<feBlend mode="normal" in="SourceGraphic" in2="effect1_backgroundBlur_41_2955" result="shape"/>
</filter>
</defs>
</svg>
