<svg width="16" height="16" viewBox="0 0 16 16" fill="none" xmlns="http://www.w3.org/2000/svg">
<rect width="16" height="16" rx="2" fill="white"/>
<path d="M11.4255 3H3.70213C3.31435 3 3 3.31435 3 3.70213V11.8936C3 12.2814 3.31435 12.5957 3.70213 12.5957H11.4255C11.8133 12.5957 12.1277 12.2814 12.1277 11.8936V3.70213C12.1277 3.31435 11.8133 3 11.4255 3Z" fill="#5C66F9"/>
<path d="M8.85113 5.57446H5.57453C5.31601 5.57446 5.10645 5.78403 5.10645 6.04255C5.10645 6.30106 5.31601 6.51063 5.57453 6.51063H8.85113C9.10964 6.51063 9.31921 6.30106 9.31921 6.04255C9.31921 5.78403 9.10964 5.57446 8.85113 5.57446Z" fill="url(#paint0_linear_79_3385)"/>
<path d="M6.74474 7.44684H5.57453C5.31601 7.44684 5.10645 7.65641 5.10645 7.91492C5.10645 8.17344 5.31601 8.38301 5.57453 8.38301H6.74474C7.00326 8.38301 7.21283 8.17344 7.21283 7.91492C7.21283 7.65641 7.00326 7.44684 6.74474 7.44684Z" fill="url(#paint1_linear_79_3385)"/>
<g filter="url(#filter0_b_79_3385)">
<path d="M10.6063 14.2341C12.4805 14.2341 13.9999 12.7147 13.9999 10.8405C13.9999 8.96621 12.4805 7.44684 10.6063 7.44684C8.73202 7.44684 7.21265 8.96621 7.21265 10.8405C7.21265 12.7147 8.73202 14.2341 10.6063 14.2341Z" fill="white" fill-opacity="0.06"/>
</g>
<path d="M8.91671 11.3478C8.91671 11.4766 8.88367 11.5843 8.81759 11.6709C8.75152 11.7576 8.6657 11.8215 8.56015 11.8627C8.45459 11.9039 8.34175 11.9245 8.2216 11.9245C8.04654 11.9245 7.88864 11.8838 7.7479 11.8022C7.60716 11.7207 7.51363 11.6053 7.46729 11.456L7.77107 11.2835C7.81226 11.3796 7.87233 11.4542 7.95129 11.5075C8.03024 11.5607 8.12463 11.5873 8.23448 11.5873C8.32372 11.5873 8.39452 11.5692 8.44687 11.5332C8.49922 11.4972 8.52539 11.4448 8.52539 11.3762C8.52539 11.3212 8.5078 11.2758 8.47261 11.2397C8.43743 11.2037 8.39366 11.1753 8.34132 11.1548C8.28897 11.1342 8.21731 11.1101 8.12635 11.0827C8.00449 11.0466 7.90494 11.011 7.82771 10.9758C7.75048 10.9406 7.6844 10.8879 7.62948 10.8175C7.57455 10.7471 7.54709 10.6544 7.54709 10.5395C7.54709 10.4176 7.57927 10.3142 7.64364 10.2292C7.708 10.1443 7.79296 10.0808 7.89851 10.0387C8.00406 9.99667 8.11777 9.97565 8.23963 9.97565C8.40611 9.97565 8.54856 10.0134 8.66699 10.0889C8.78541 10.1644 8.86179 10.2666 8.89612 10.3953L8.59233 10.5678C8.56143 10.4871 8.51509 10.424 8.45331 10.3786C8.39152 10.3331 8.31429 10.3103 8.2216 10.3103C8.13751 10.3103 8.06928 10.3296 8.01693 10.3683C7.96459 10.4069 7.93841 10.4579 7.93841 10.5214C7.93841 10.5695 7.95472 10.6094 7.98733 10.6411C8.01994 10.6729 8.06156 10.6986 8.11219 10.7184C8.16282 10.7381 8.23104 10.7609 8.31686 10.7866C8.44043 10.8226 8.54255 10.8591 8.62322 10.896C8.70389 10.9329 8.77297 10.9878 8.83047 11.0608C8.88796 11.1337 8.91671 11.2294 8.91671 11.3478ZM9.16901 10.0091H10.397V10.3361H9.54231V10.8175H10.3069V11.1419H9.54231V11.8936H9.16901V10.0091ZM10.5515 10.0091H12.0704V10.3412H11.4989V11.8936H11.123V10.3412H10.5515V10.0091ZM12.9406 10.0091C13.0899 10.0091 13.2204 10.0349 13.3319 10.0863C13.4435 10.1378 13.5297 10.2104 13.5907 10.3039C13.6516 10.3974 13.6821 10.5068 13.6821 10.6321C13.6821 10.7557 13.6516 10.8643 13.5907 10.9578C13.5297 11.0513 13.4435 11.1234 13.3319 11.1741C13.2204 11.2247 13.0899 11.25 12.9406 11.25H12.6651V11.8936H12.2918V10.0091H12.9406ZM12.8994 10.9333C13.0161 10.9333 13.1097 10.908 13.18 10.8574C13.2504 10.8068 13.2856 10.7317 13.2856 10.6321C13.2856 10.5326 13.2504 10.4566 13.18 10.4043C13.1097 10.3519 13.0161 10.3258 12.8994 10.3258H12.6651V10.9333H12.8994Z" fill="url(#paint2_linear_79_3385)"/>
<defs>
<filter id="filter0_b_79_3385" x="1.21265" y="1.44684" width="18.7874" height="18.7872" filterUnits="userSpaceOnUse" color-interpolation-filters="sRGB">
<feFlood flood-opacity="0" result="BackgroundImageFix"/>
<feGaussianBlur in="BackgroundImageFix" stdDeviation="3"/>
<feComposite in2="SourceAlpha" operator="in" result="effect1_backgroundBlur_79_3385"/>
<feBlend mode="normal" in="SourceGraphic" in2="effect1_backgroundBlur_79_3385" result="shape"/>
</filter>
<linearGradient id="paint0_linear_79_3385" x1="7.21283" y1="5.57446" x2="7.21283" y2="6.51063" gradientUnits="userSpaceOnUse">
<stop stop-color="white"/>
<stop offset="0.5" stop-color="white" stop-opacity="0.9"/>
<stop offset="1" stop-color="white" stop-opacity="0.2"/>
</linearGradient>
<linearGradient id="paint1_linear_79_3385" x1="6.15964" y1="7.44684" x2="6.15964" y2="8.38301" gradientUnits="userSpaceOnUse">
<stop stop-color="white"/>
<stop offset="0.5" stop-color="white" stop-opacity="0.9"/>
<stop offset="1" stop-color="white" stop-opacity="0.2"/>
</linearGradient>
<linearGradient id="paint2_linear_79_3385" x1="7.46729" y1="10.9501" x2="10.4893" y2="15.0532" gradientUnits="userSpaceOnUse">
<stop stop-color="white"/>
<stop offset="0.5" stop-color="white" stop-opacity="0.9"/>
<stop offset="1" stop-color="white" stop-opacity="0.2"/>
</linearGradient>
</defs>
</svg>
