<svg width="16" height="16" viewBox="0 0 16 16" fill="none" xmlns="http://www.w3.org/2000/svg">
<rect width="16" height="16" rx="2" fill="white"/>
<path fill-rule="evenodd" clip-rule="evenodd" d="M9.97586 3.55784C9.9136 3.38678 9.73312 3.25874 9.55579 3.32328L9.20113 3.45237C9.20113 3.45237 8.43271 3.73205 7.53976 3.66961C6.62921 3.74272 5.95194 3.53719 5.95194 3.53719L5.65324 3.45218C5.51426 3.43819 5.33694 3.50273 5.23947 3.60278L5.1244 3.83839C5.1244 3.83839 4.71694 4.37415 4.01393 5.01748C3.34928 5.58227 2.66072 5.89746 2.60161 5.91897L2.24695 6.04806C2.06962 6.1126 2.01367 6.3267 2.07593 6.49776L3.34194 9.97609C3.67401 10.8884 4.55882 11.6642 5.75677 12.1968C6.87487 12.6939 8.04576 12.7843 8.75508 12.5262C9.4644 12.268 10.3032 11.4461 10.8402 10.3466C11.4746 9.14703 11.5947 8.00555 11.2626 7.0932L9.97586 3.55784Z" fill="#18CCF0"/>
<g filter="url(#filter0_b_41_2975)">
<path fill-rule="evenodd" clip-rule="evenodd" d="M14.5001 5.83862C14.5001 5.65658 14.3743 5.47453 14.1855 5.47453H13.8081C13.8081 5.47453 12.9904 5.47453 12.1726 5.11044C11.292 4.86772 10.7259 4.44295 10.7259 4.44295L10.4743 4.2609C10.3485 4.20022 10.1597 4.20022 10.0339 4.2609L9.84523 4.44295C9.84523 4.44295 9.2791 4.80704 8.39846 5.17112C7.58072 5.47453 6.82588 5.53521 6.76298 5.53521H6.38556C6.19685 5.53521 6.07104 5.71726 6.07104 5.8993V9.60086C6.07104 10.5718 6.63717 11.6033 7.58072 12.5136C8.46136 13.3631 9.53072 13.8486 10.2856 13.8486C11.0404 13.8486 12.1097 13.3631 12.9904 12.5136C13.9968 11.6033 14.5001 10.5718 14.5001 9.60086V5.83862Z" fill="white" fill-opacity="0.06"/>
</g>
<path d="M8.22965 9.24523C8.22965 9.36564 8.19874 9.46639 8.13693 9.54747C8.07512 9.62855 7.99484 9.68835 7.8961 9.72689C7.79736 9.76542 7.6918 9.78469 7.57941 9.78469C7.41565 9.78469 7.26794 9.74655 7.13628 9.67029C7.00463 9.59403 6.91713 9.48606 6.87378 9.34638L7.15796 9.18502C7.19649 9.27493 7.25268 9.34477 7.32654 9.39454C7.40039 9.44431 7.4887 9.4692 7.59145 9.4692C7.67494 9.4692 7.74117 9.45234 7.79013 9.41863C7.8391 9.38491 7.86359 9.33594 7.86359 9.27172C7.86359 9.22034 7.84713 9.1778 7.81422 9.14408C7.7813 9.11036 7.74036 9.08387 7.69139 9.06461C7.64243 9.04534 7.57539 9.02286 7.4903 8.99717C7.37631 8.96346 7.28319 8.93014 7.21094 8.89723C7.13869 8.86432 7.07688 8.81495 7.0255 8.74912C6.97413 8.68329 6.94844 8.5966 6.94844 8.48902C6.94844 8.37503 6.97854 8.2783 7.03875 8.19883C7.09895 8.11935 7.17843 8.05995 7.27717 8.02061C7.37591 7.98128 7.48227 7.96161 7.59627 7.96161C7.752 7.96161 7.88526 7.99693 7.99604 8.06757C8.10682 8.13822 8.17827 8.23375 8.21038 8.35416L7.9262 8.51552C7.8973 8.44006 7.85395 8.38105 7.79615 8.33851C7.73836 8.29596 7.66611 8.27469 7.57941 8.27469C7.50074 8.27469 7.43692 8.29275 7.38795 8.32887C7.33898 8.365 7.3145 8.41276 7.3145 8.47217C7.3145 8.51712 7.32975 8.55445 7.36025 8.58415C7.39076 8.61385 7.42969 8.63794 7.47706 8.6564C7.52442 8.67486 7.58824 8.69614 7.66852 8.72022C7.78411 8.75394 7.87964 8.78805 7.9551 8.82257C8.03056 8.85709 8.09518 8.90847 8.14897 8.9767C8.20275 9.04494 8.22965 9.13445 8.22965 9.24523ZM8.38137 8.87194C8.38137 8.68731 8.4183 8.52595 8.49215 8.38788C8.56601 8.2498 8.66675 8.14424 8.79439 8.07119C8.92203 7.99813 9.06452 7.96161 9.22186 7.96161C9.37921 7.96161 9.5217 7.99813 9.64934 8.07119C9.77697 8.14424 9.87812 8.2498 9.95278 8.38788C10.0274 8.52595 10.0648 8.68731 10.0648 8.87194C10.0648 9.05818 10.0274 9.22034 9.95278 9.35842C9.87812 9.49649 9.77697 9.60206 9.64934 9.67511C9.5217 9.74816 9.37921 9.78469 9.22186 9.78469C9.06452 9.78469 8.92203 9.74816 8.79439 9.67511C8.66675 9.60206 8.56601 9.49649 8.49215 9.35842C8.4183 9.22034 8.38137 9.05818 8.38137 8.87194ZM8.74984 8.87194C8.74984 8.98915 8.76951 9.0927 8.80884 9.18261C8.84818 9.27252 8.90357 9.34196 8.97501 9.39093C9.04646 9.4399 9.12874 9.46438 9.22186 9.46438C9.31498 9.46438 9.39727 9.4399 9.46871 9.39093C9.54016 9.34196 9.59555 9.27252 9.63489 9.18261C9.67422 9.0927 9.69389 8.98915 9.69389 8.87194C9.69389 8.75474 9.67422 8.65158 9.63489 8.56248C9.59555 8.47337 9.54016 8.40433 9.46871 8.35536C9.39727 8.3064 9.31498 8.28191 9.22186 8.28191C9.12874 8.28191 9.04646 8.3064 8.97501 8.35536C8.90357 8.40433 8.84818 8.47337 8.80884 8.56248C8.76951 8.65158 8.74984 8.75474 8.74984 8.87194ZM11.0738 7.99292L11.7867 9.75579H11.4158L11.2617 9.3536H10.5753L10.426 9.75579H10.0768L10.768 7.99292H11.0738ZM11.1485 9.05497L10.9125 8.43604L10.6837 9.05497H11.1485ZM12.5959 7.99292C12.7356 7.99292 12.8576 8.017 12.9619 8.06517C13.0663 8.11333 13.147 8.18117 13.204 8.26867C13.261 8.35617 13.2895 8.45852 13.2895 8.57572C13.2895 8.69132 13.261 8.79287 13.204 8.88037C13.147 8.96787 13.0663 9.03531 12.9619 9.08267C12.8576 9.13003 12.7356 9.15371 12.5959 9.15371H12.3382V9.75579H11.989V7.99292H12.5959ZM12.5573 8.85749C12.6665 8.85749 12.754 8.83381 12.8198 8.78645C12.8857 8.73909 12.9186 8.66884 12.9186 8.57572C12.9186 8.4826 12.8857 8.41156 12.8198 8.36259C12.754 8.31362 12.6665 8.28914 12.5573 8.28914H12.3382V8.85749H12.5573Z" fill="url(#paint0_linear_41_2975)"/>
<defs>
<filter id="filter0_b_41_2975" x="0.0710449" y="-1.78461" width="20.429" height="21.6332" filterUnits="userSpaceOnUse" color-interpolation-filters="sRGB">
<feFlood flood-opacity="0" result="BackgroundImageFix"/>
<feGaussianBlur in="BackgroundImageFix" stdDeviation="3"/>
<feComposite in2="SourceAlpha" operator="in" result="effect1_backgroundBlur_41_2975"/>
<feBlend mode="normal" in="SourceGraphic" in2="effect1_backgroundBlur_41_2975" result="shape"/>
</filter>
<linearGradient id="paint0_linear_41_2975" x1="12.3175" y1="7.96161" x2="5.11244" y2="10.4615" gradientUnits="userSpaceOnUse">
<stop stop-color="white"/>
<stop offset="0.5" stop-color="white" stop-opacity="0.9"/>
<stop offset="1" stop-color="white" stop-opacity="0.2"/>
</linearGradient>
</defs>
</svg>
