<svg width="16" height="16" viewBox="0 0 16 16" fill="none" xmlns="http://www.w3.org/2000/svg">
<rect width="16" height="16" rx="2" fill="white"/>
<path d="M5.72061 3.80856C5.96404 3.54706 6.32849 3.4353 6.67666 3.51537L10.2547 4.33817C10.6028 4.41824 10.8819 4.67797 10.9866 5.01954L12.063 8.52958C12.1678 8.87114 12.0824 9.24265 11.8389 9.50414L9.33736 12.1914C9.09393 12.4529 8.72949 12.5646 8.38131 12.4846L4.80331 11.6618C4.45513 11.5817 4.17611 11.322 4.07137 10.9804L2.99493 7.47037C2.89018 7.1288 2.97561 6.7573 3.21904 6.4958L5.72061 3.80856Z" fill="#18CCF0"/>
<g filter="url(#filter0_b_41_3042)">
<path d="M9.174 4.26695C9.4834 4.08831 9.86459 4.08831 10.174 4.26695L13.3535 6.10264C13.6629 6.28128 13.8535 6.6114 13.8535 6.96867V10.6401C13.8535 10.9973 13.6629 11.3275 13.3535 11.5061L10.174 13.3418C9.86459 13.5204 9.4834 13.5204 9.17399 13.3418L5.99447 11.5061C5.68507 11.3275 5.49447 10.9973 5.49447 10.6401V6.96867C5.49447 6.6114 5.68507 6.28128 5.99447 6.10264L9.174 4.26695Z" fill="white" fill-opacity="0.06"/>
</g>
<path d="M12.3385 6.57612L12.0879 6.32549C12.0784 6.31603 12.0666 6.31189 12.0542 6.31189C12.0418 6.31189 12.0299 6.31662 12.0205 6.32549L11.5706 6.77532C11.3714 6.63996 11.1397 6.57257 10.908 6.57257C10.6054 6.57257 10.3027 6.68784 10.0716 6.91896L9.46923 7.52131C9.45091 7.53963 9.45091 7.56978 9.46923 7.5881L11.0753 9.19416C11.0847 9.20362 11.0966 9.20775 11.109 9.20775C11.1208 9.20775 11.1332 9.20303 11.1427 9.19416L11.745 8.59181C12.1523 8.18395 12.2002 7.55323 11.8887 7.09334L12.3385 6.6435C12.3568 6.62459 12.3568 6.59444 12.3385 6.57612ZM10.3358 8.92816C10.3175 8.90983 10.2873 8.90983 10.269 8.92816L9.87533 9.32184L9.34155 8.78806L9.73583 8.39379C9.75415 8.37547 9.75415 8.34532 9.73583 8.327L9.52066 8.11183C9.50234 8.09351 9.47219 8.09351 9.45387 8.11183L9.05959 8.5061L8.80541 8.25192C8.79596 8.24247 8.78413 8.23833 8.77172 8.23833C8.7599 8.23833 8.74749 8.24306 8.73803 8.25192L8.13627 8.85427C7.729 9.26155 7.68112 9.89285 7.99263 10.3527L7.5428 10.8026C7.52447 10.8209 7.52447 10.851 7.5428 10.8694L7.79343 11.12C7.80289 11.1295 7.81471 11.1336 7.82712 11.1336C7.83954 11.1336 7.85136 11.1289 7.86082 11.12L8.31065 10.6702C8.50986 10.8055 8.74157 10.8729 8.97329 10.8729C9.27594 10.8729 9.57859 10.7577 9.80972 10.5265L10.4121 9.92418C10.4304 9.90586 10.4304 9.87571 10.4121 9.85739L10.1579 9.60321L10.5522 9.20894C10.5705 9.19061 10.5705 9.16047 10.5522 9.14214L10.3358 8.92816Z" fill="url(#paint0_linear_41_3042)"/>
<defs>
<filter id="filter0_b_41_3042" x="-0.505615" y="-1.867" width="20.3591" height="21.3428" filterUnits="userSpaceOnUse" color-interpolation-filters="sRGB">
<feFlood flood-opacity="0" result="BackgroundImageFix"/>
<feGaussianBlur in="BackgroundImageFix" stdDeviation="3"/>
<feComposite in2="SourceAlpha" operator="in" result="effect1_backgroundBlur_41_3042"/>
<feBlend mode="normal" in="SourceGraphic" in2="effect1_backgroundBlur_41_3042" result="shape"/>
</filter>
<linearGradient id="paint0_linear_41_3042" x1="12.3522" y1="6.51745" x2="6.44384" y2="11.6174" gradientUnits="userSpaceOnUse">
<stop stop-color="white"/>
<stop offset="0.5" stop-color="white" stop-opacity="0.9"/>
<stop offset="1" stop-color="white" stop-opacity="0.2"/>
</linearGradient>
</defs>
</svg>
