<svg width="16" height="16" viewBox="0 0 16 16" fill="none" xmlns="http://www.w3.org/2000/svg">
<rect width="16" height="16" rx="2" fill="white"/>
<path d="M8.33635 2.46471L2.87398 5.3691C2.39129 5.62575 2.20805 6.22509 2.4647 6.70778L5.3691 12.1701C5.62574 12.6528 6.22509 12.8361 6.70778 12.5794L12.1701 9.67503C12.6528 9.41838 12.8361 8.81903 12.5794 8.33635L9.67503 2.87398C9.41838 2.3913 8.81903 2.20806 8.33635 2.46471Z" fill="#FBAD00"/>
<g filter="url(#filter0_b_79_3331)">
<path d="M13.0101 4.87793H6.82358C6.27691 4.87793 5.83374 5.3211 5.83374 5.86777V12.0543C5.83374 12.601 6.27691 13.0441 6.82358 13.0441H13.0101C13.5568 13.0441 13.9999 12.601 13.9999 12.0543V5.86777C13.9999 5.3211 13.5568 4.87793 13.0101 4.87793Z" fill="white" fill-opacity="0.06"/>
</g>
<path d="M11.278 7.22882C11.476 7.22882 11.6493 7.40204 11.6493 7.60005V10.322C11.6493 10.52 11.476 10.6933 11.278 10.6933H8.55599C8.35804 10.6933 8.18481 10.52 8.18481 10.322V7.60005C8.18481 7.40204 8.35804 7.22882 8.55599 7.22882H11.278ZM10.1949 9.38811C10.1929 9.39005 10.1911 9.39205 10.1892 9.3941C10.1407 9.44876 10.1396 9.52922 10.1832 9.58482L10.2016 9.60441L10.313 9.7034L10.1839 9.84683C10.1314 9.90515 10.1338 9.99436 10.1892 10.0498C10.2439 10.1045 10.3325 10.1045 10.3872 10.0499L10.511 9.92613L10.6347 10.0498C10.6893 10.1045 10.778 10.1045 10.8326 10.0498C10.889 9.9935 10.8939 9.90379 10.8442 9.84156L10.7336 9.7034L10.8566 9.58046C10.9052 9.53184 10.9052 9.45299 10.8566 9.40436C10.853 9.4007 10.8491 9.39727 10.845 9.3941C10.7805 9.34391 10.6893 9.3469 10.6282 9.40122L10.511 9.50545L10.3936 9.38809C10.3387 9.33323 10.2497 9.33324 10.1949 9.38811ZM10.7832 8.09493C10.7285 8.04027 10.6399 8.04027 10.5852 8.09493L9.05093 9.6292C8.99626 9.68387 8.99626 9.77249 9.05093 9.82716C9.10559 9.88182 9.19422 9.88182 9.24888 9.82716L10.7832 8.29289C10.8378 8.23822 10.8378 8.1496 10.7832 8.09493ZM9.6422 7.96846L9.27361 8.31762L9.1004 8.14441C9.05181 8.09582 8.97639 8.09042 8.92183 8.12821L8.90244 8.14442C8.84777 8.1991 8.84778 8.28774 8.90245 8.34241L9.18776 8.62772C9.23543 8.6754 9.31251 8.67612 9.36107 8.62936L9.84095 8.16725C9.89559 8.11462 9.89723 8.02767 9.84461 7.97302L9.84279 7.97118C9.7877 7.91608 9.69876 7.91488 9.6422 7.96846Z" fill="url(#paint0_linear_79_3331)"/>
<defs>
<filter id="filter0_b_79_3331" x="-0.16626" y="-1.12207" width="20.1663" height="20.1662" filterUnits="userSpaceOnUse" color-interpolation-filters="sRGB">
<feFlood flood-opacity="0" result="BackgroundImageFix"/>
<feGaussianBlur in="BackgroundImageFix" stdDeviation="3"/>
<feComposite in2="SourceAlpha" operator="in" result="effect1_backgroundBlur_79_3331"/>
<feBlend mode="normal" in="SourceGraphic" in2="effect1_backgroundBlur_79_3331" result="shape"/>
</filter>
<linearGradient id="paint0_linear_79_3331" x1="9.91704" y1="7.22882" x2="8.18481" y2="11.3119" gradientUnits="userSpaceOnUse">
<stop stop-color="white"/>
<stop offset="0.5" stop-color="white" stop-opacity="0.9"/>
<stop offset="1" stop-color="white" stop-opacity="0.2"/>
</linearGradient>
</defs>
</svg>
