<svg width="16" height="16" viewBox="0 0 16 16" fill="none" xmlns="http://www.w3.org/2000/svg">
<rect width="16" height="16" rx="2" fill="white"/>
<path d="M8.33635 2.94267L2.87398 5.84706C2.39129 6.10371 2.20805 6.70306 2.4647 7.18575L5.3691 12.6481C5.62574 13.1308 6.22509 13.314 6.70778 13.0574L12.1701 10.153C12.6528 9.89635 12.8361 9.297 12.5794 8.81432L9.67503 3.35195C9.41838 2.86926 8.81903 2.68602 8.33635 2.94267Z" fill="#18CCF0"/>
<g filter="url(#filter0_b_41_2908)">
<path d="M13.0103 5.3559H6.82383C6.27715 5.3559 5.83398 5.79906 5.83398 6.34574V12.5323C5.83398 13.0789 6.27715 13.5221 6.82383 13.5221H13.0103C13.557 13.5221 14.0002 13.0789 14.0002 12.5323V6.34574C14.0002 5.79906 13.557 5.3559 13.0103 5.3559Z" fill="white" fill-opacity="0.06"/>
</g>
<path d="M9.68234 7.14082C9.83085 7.07049 10.0031 7.07049 10.1516 7.14082L11.659 7.85481C11.8505 7.94546 11.9725 8.13827 11.9726 8.35008V9.10792C11.9726 10.2229 11.3164 11.2329 10.301 11.6807C10.1349 11.7542 10.0091 11.7898 9.91696 11.7898C9.82487 11.7898 9.69906 11.7542 9.53297 11.6807C8.51549 11.2298 7.85997 10.2209 7.86133 9.10792V8.35008C7.86139 8.13827 7.98346 7.94546 8.17488 7.85481L9.68234 7.14082ZM9.69714 9.47327V10.347C9.69714 10.4412 9.77347 10.5175 9.86762 10.5175C9.96178 10.5175 10.0381 10.4412 10.0381 10.347V10.1768H10.3793C10.4735 10.1768 10.5498 10.1005 10.5498 10.0064C10.5498 9.91221 10.4735 9.83588 10.3793 9.83588H10.0381V9.47354C10.1562 9.44312 10.2639 9.38145 10.35 9.29484C10.6089 9.02719 10.6053 8.60136 10.342 8.33809C10.0786 8.07481 9.65282 8.07136 9.38524 8.33034C9.25679 8.45888 9.18491 8.63334 9.18552 8.81506C9.18615 8.99677 9.25921 9.17074 9.38853 9.29841C9.47432 9.38282 9.58066 9.44312 9.69714 9.47327ZM10.057 9.09613C9.90035 9.20073 9.68855 9.15852 9.58395 9.00185C9.47935 8.84518 9.52156 8.63338 9.67823 8.52878C9.8349 8.42418 10.0467 8.46639 10.1513 8.62306C10.2559 8.77973 10.2137 8.99153 10.057 9.09613Z" fill="url(#paint0_linear_41_2908)"/>
<defs>
<filter id="filter0_b_41_2908" x="-0.166016" y="-0.644104" width="20.1663" height="20.1662" filterUnits="userSpaceOnUse" color-interpolation-filters="sRGB">
<feFlood flood-opacity="0" result="BackgroundImageFix"/>
<feGaussianBlur in="BackgroundImageFix" stdDeviation="3"/>
<feComposite in2="SourceAlpha" operator="in" result="effect1_backgroundBlur_41_2908"/>
<feBlend mode="normal" in="SourceGraphic" in2="effect1_backgroundBlur_41_2908" result="shape"/>
</filter>
<linearGradient id="paint0_linear_41_2908" x1="9.91696" y1="7.08807" x2="8.68152" y2="11.8814" gradientUnits="userSpaceOnUse">
<stop stop-color="white"/>
<stop offset="0.5" stop-color="white" stop-opacity="0.9"/>
<stop offset="1" stop-color="white" stop-opacity="0.2"/>
</linearGradient>
</defs>
</svg>
