<svg width="16" height="16" viewBox="0 0 16 16" fill="none" xmlns="http://www.w3.org/2000/svg">
<rect width="16" height="16" rx="2" fill="white"/>
<path fill-rule="evenodd" clip-rule="evenodd" d="M9.82387 3.408C9.7664 3.25009 9.5998 3.1319 9.43611 3.19148L9.10874 3.31064C9.10874 3.31064 8.39942 3.56881 7.57516 3.51116C6.73465 3.57865 6.10948 3.38894 6.10948 3.38894L5.83376 3.31047C5.70547 3.29755 5.54179 3.35713 5.45182 3.44948L5.3456 3.66696C5.3456 3.66696 4.96949 4.16151 4.32056 4.75535C3.70703 5.2767 3.07143 5.56765 3.01687 5.5875L2.68949 5.70666C2.52581 5.76624 2.47415 5.96386 2.53163 6.12177L3.70025 9.33254C4.00678 10.1747 4.82352 10.8908 5.92933 11.3824C6.96142 11.8413 8.04224 11.9248 8.697 11.6865C9.35175 11.4481 10.1261 10.6895 10.6217 9.67453C11.2074 8.56725 11.3182 7.51357 11.0117 6.6714L9.82387 3.408Z" fill="#FBAD00"/>
<g filter="url(#filter0_b_79_3343)">
<path fill-rule="evenodd" clip-rule="evenodd" d="M14.0001 5.51338C14.0001 5.34534 13.884 5.1773 13.7098 5.1773H13.3614C13.3614 5.1773 12.6066 5.1773 11.8517 4.84121C11.0388 4.61716 10.5163 4.22507 10.5163 4.22507L10.284 4.05702C10.1679 4.00101 9.99367 4.00101 9.87754 4.05702L9.70335 4.22507C9.70335 4.22507 9.18077 4.56115 8.36787 4.89723C7.61303 5.1773 6.91626 5.23331 6.85819 5.23331H6.50981C6.33561 5.23331 6.21948 5.40135 6.21948 5.56939V8.98622C6.21948 9.88243 6.74206 10.8347 7.61303 11.6749C8.42593 12.4591 9.41303 12.9072 10.1098 12.9072C10.8066 12.9072 11.7937 12.4591 12.6066 11.6749C13.5356 10.8347 14.0001 9.88243 14.0001 8.98622V5.51338Z" fill="white" fill-opacity="0.06"/>
</g>
<path d="M11.5811 9.97216C11.7095 9.97216 11.8136 10.0762 11.8136 10.2046C11.8136 10.333 11.7095 10.4371 11.5811 10.4371H8.79139C8.663 10.4371 8.55892 10.333 8.55892 10.2046C8.55892 10.0762 8.663 9.97216 8.79139 9.97216H11.5811ZM10.1862 7.41495C10.9566 7.41495 11.5811 8.03944 11.5811 8.80979V9.73969H8.79139V8.80979C8.79139 8.03944 9.41588 7.41495 10.1862 7.41495ZM8.60495 7.30801L8.62354 7.31824L8.97225 7.55071C9.0224 7.58405 9.03879 7.65016 9.01002 7.70306C8.98124 7.75596 8.91683 7.77812 8.8616 7.75413L8.843 7.74413L8.49429 7.51165C8.44414 7.47832 8.42775 7.4122 8.45653 7.35931C8.4853 7.30641 8.54971 7.28401 8.60495 7.30801ZM11.9103 7.35055C11.9413 7.3972 11.9347 7.45938 11.8945 7.4984L11.8782 7.51165L11.5295 7.74413L11.5109 7.75413C11.4594 7.7763 11.3994 7.75854 11.3682 7.71189C11.3371 7.66525 11.3437 7.60302 11.3839 7.56396L11.4002 7.55071L11.7489 7.31824L11.7675 7.30824C11.8191 7.28602 11.8791 7.30383 11.9103 7.35055ZM9.34003 6.75309L9.35305 6.76936L9.58552 7.11807C9.61865 7.16808 9.60827 7.23509 9.56158 7.27274C9.51489 7.3104 9.44721 7.30634 9.40536 7.26337L9.3921 7.2471L9.15963 6.89839C9.12526 6.84833 9.13522 6.78025 9.18248 6.74213C9.22974 6.70401 9.29837 6.70891 9.34003 6.75309ZM11.1805 6.73705C11.2273 6.76817 11.2451 6.82823 11.2228 6.87979L11.2128 6.89839L10.9804 7.2471L10.9674 7.26337C10.9284 7.30432 10.8657 7.31136 10.8187 7.28004C10.7717 7.24873 10.754 7.18814 10.7767 7.13644L10.787 7.11784L11.0194 6.76913L11.0327 6.75286C11.0717 6.71263 11.1339 6.70598 11.1805 6.73705ZM10.1862 6.48505C10.2424 6.48503 10.2905 6.52514 10.3006 6.58036L10.3025 6.60128V7.06623C10.3026 7.12644 10.2567 7.17677 10.1967 7.18221C10.1368 7.18765 10.0826 7.1464 10.0719 7.08716L10.07 7.06623V6.60128C10.07 6.53709 10.122 6.48505 10.1862 6.48505Z" fill="url(#paint0_linear_79_3343)"/>
<defs>
<filter id="filter0_b_79_3343" x="0.219482" y="-1.98499" width="19.7805" height="20.8922" filterUnits="userSpaceOnUse" color-interpolation-filters="sRGB">
<feFlood flood-opacity="0" result="BackgroundImageFix"/>
<feGaussianBlur in="BackgroundImageFix" stdDeviation="3"/>
<feComposite in2="SourceAlpha" operator="in" result="effect1_backgroundBlur_79_3343"/>
<feBlend mode="normal" in="SourceGraphic" in2="effect1_backgroundBlur_79_3343" result="shape"/>
</filter>
<linearGradient id="paint0_linear_79_3343" x1="10.1861" y1="6.48505" x2="8.44238" y2="11.1781" gradientUnits="userSpaceOnUse">
<stop stop-color="white"/>
<stop offset="0.5" stop-color="white" stop-opacity="0.9"/>
<stop offset="1" stop-color="white" stop-opacity="0.2"/>
</linearGradient>
</defs>
</svg>
