<svg width="16" height="16" viewBox="0 0 16 16" fill="none" xmlns="http://www.w3.org/2000/svg">
<rect width="16" height="16" rx="2" fill="white"/>
<path d="M6.58137 3C4.05123 3 2 5.05054 2 7.5807C2 10.1108 4.05124 12.1617 6.58136 12.1617C9.11115 12.1617 11.162 10.1108 11.162 7.5807C11.162 5.05054 9.11116 3 6.58137 3Z" fill="#5438E6"/>
<g filter="url(#filter0_b_79_3117)">
<path fill-rule="evenodd" clip-rule="evenodd" d="M9.41926 4.9809C6.88912 4.9809 4.83789 7.03144 4.83789 9.5616C4.83789 12.0917 6.88913 14.1426 9.41925 14.1426C11.949 14.1426 13.9999 12.0917 13.9999 9.5616C13.9999 7.03144 11.9491 4.9809 9.41926 4.9809Z" fill="white" fill-opacity="0.06"/>
</g>
<path d="M9.54254 7.20941C10.908 7.20941 12.0187 8.32005 12.0187 9.68554C12.0187 11.051 10.908 12.1617 9.54254 12.1617C8.17704 12.1617 7.06641 11.0507 7.06641 9.68554C7.06641 8.32005 8.17704 7.20941 9.54254 7.20941ZM10.2953 10.163C10.2497 10.1168 10.1794 10.1119 10.1383 10.153L10.0151 10.2765C9.97405 10.3176 9.97888 10.3876 10.0248 10.4335L10.3367 10.7454L10.1963 10.8856C10.1625 10.917 10.1915 10.9798 10.2422 10.9822L10.8129 11.0042C10.8265 11.0046 10.8396 10.9993 10.8492 10.9897C10.8587 10.9802 10.864 10.9671 10.8636 10.9535L10.8419 10.3828C10.8395 10.3345 10.7767 10.3031 10.7477 10.3345L10.6073 10.4746L10.2953 10.163ZM8.95129 10.1557C8.91052 10.1146 8.84016 10.1195 8.79426 10.1654L8.48263 10.477L8.34222 10.3369C8.31081 10.3031 8.248 10.3321 8.24559 10.3828L8.22385 10.9532C8.22351 10.9668 8.22875 10.9799 8.23834 10.9894C8.24792 10.999 8.26102 11.0043 8.27458 11.0039L8.84499 10.9822C8.89361 10.9798 8.92501 10.917 8.89361 10.888L8.7532 10.7479L9.06513 10.4359C9.11103 10.39 9.11586 10.32 9.07479 10.2789L8.95129 10.1557ZM8.27216 8.36685C8.24317 8.36685 8.22143 8.38859 8.22143 8.41758L8.24559 8.99041C8.248 9.03873 8.31081 9.07013 8.34222 9.03631L8.48263 8.8962L8.79215 9.21025C8.83775 9.25615 8.9081 9.26128 8.94917 9.21991L9.07237 9.09671C9.11344 9.05564 9.10861 8.98558 9.06271 8.93968L8.75078 8.62775L8.88878 8.48522C8.9226 8.45382 8.89361 8.39101 8.84288 8.38859L8.27216 8.36685ZM10.8129 8.36927L10.2425 8.39101C10.1942 8.39343 10.1625 8.45623 10.1963 8.48764L10.3343 8.62534L10.0224 8.93727C9.97646 8.98317 9.97163 9.05322 10.0127 9.09429L10.1362 9.21749C10.177 9.25886 10.2473 9.25403 10.2932 9.20783L10.6049 8.8962L10.7453 9.03631C10.7767 9.07013 10.8395 9.04114 10.8419 8.99041L10.8636 8.42C10.8636 8.39101 10.8419 8.36927 10.8129 8.36927Z" fill="url(#paint0_linear_79_3117)"/>
<defs>
<filter id="filter0_b_79_3117" x="-1.16211" y="-1.0191" width="21.1621" height="21.1617" filterUnits="userSpaceOnUse" color-interpolation-filters="sRGB">
<feFlood flood-opacity="0" result="BackgroundImageFix"/>
<feGaussianBlur in="BackgroundImageFix" stdDeviation="3"/>
<feComposite in2="SourceAlpha" operator="in" result="effect1_backgroundBlur_79_3117"/>
<feBlend mode="normal" in="SourceGraphic" in2="effect1_backgroundBlur_79_3117" result="shape"/>
</filter>
<linearGradient id="paint0_linear_79_3117" x1="9.54254" y1="7.20941" x2="6.95221" y2="11.6664" gradientUnits="userSpaceOnUse">
<stop stop-color="white"/>
<stop offset="0.5" stop-color="white" stop-opacity="0.9"/>
<stop offset="1" stop-color="white" stop-opacity="0.2"/>
</linearGradient>
</defs>
</svg>
