<svg width="16" height="16" viewBox="0 0 16 16" fill="none" xmlns="http://www.w3.org/2000/svg">
<rect width="16" height="16" rx="2" fill="white"/>
<path d="M8.33635 2.46471L2.87398 5.3691C2.39129 5.62575 2.20805 6.22509 2.4647 6.70778L5.3691 12.1701C5.62574 12.6528 6.22509 12.8361 6.70778 12.5794L12.1701 9.67503C12.6528 9.41838 12.8361 8.81903 12.5794 8.33635L9.67503 2.87398C9.41838 2.3913 8.81903 2.20806 8.33635 2.46471Z" fill="#5438E6"/>
<g filter="url(#filter0_b_79_3145)">
<path d="M13.0101 4.87793H6.82358C6.27691 4.87793 5.83374 5.3211 5.83374 5.86777V12.0543C5.83374 12.601 6.27691 13.0441 6.82358 13.0441H13.0101C13.5568 13.0441 13.9999 12.601 13.9999 12.0543V5.86777C13.9999 5.3211 13.5568 4.87793 13.0101 4.87793Z" fill="white" fill-opacity="0.06"/>
</g>
<path d="M8.78647 8.37077L9.20565 8.79321L9.5136 8.48417C9.54141 8.4562 9.57922 8.44048 9.61866 8.44048C9.6581 8.44048 9.69592 8.4562 9.72373 8.48417C9.78166 8.54252 9.78166 8.63668 9.72373 8.69502L9.41614 9.00479L10.1368 9.72891L10.4809 9.38266C10.5011 9.36238 10.5273 9.34959 10.5553 9.346L10.5765 9.34505C10.6123 9.34642 10.6458 9.36269 10.669 9.3899C10.7198 9.44953 10.7165 9.53821 10.6613 9.59387L10.3172 9.94023L10.7081 10.333L10.2067 10.8365C9.94917 11.099 9.59689 11.2468 9.2292 11.2467C8.93139 11.2438 8.63322 11.151 8.39411 10.9398L7.82096 11.5158C7.7931 11.5437 7.75531 11.5594 7.7159 11.5594C7.67649 11.5594 7.63869 11.5437 7.61083 11.5158C7.55227 11.4572 7.55115 11.3625 7.60829 11.3025L8.18325 10.6985C7.75213 10.1435 7.7956 9.36092 8.28578 8.87436L8.78647 8.37077ZM12.2598 6.65241C12.3196 6.59512 12.4143 6.59624 12.4728 6.65495C12.5311 6.71359 12.5311 6.80825 12.4728 6.86689L11.9297 7.41287C12.3601 7.9679 12.317 8.74937 11.8276 9.23593L11.3559 9.71053L9.40491 7.74835L9.90632 7.27447C10.164 7.0123 10.5162 6.86455 10.8838 6.86435C11.1812 6.86725 11.4798 6.96 11.7189 7.17085L12.2601 6.65241H12.2598Z" fill="url(#paint0_linear_79_3145)"/>
<defs>
<filter id="filter0_b_79_3145" x="-0.16626" y="-1.12207" width="20.1663" height="20.1662" filterUnits="userSpaceOnUse" color-interpolation-filters="sRGB">
<feFlood flood-opacity="0" result="BackgroundImageFix"/>
<feGaussianBlur in="BackgroundImageFix" stdDeviation="3"/>
<feComposite in2="SourceAlpha" operator="in" result="effect1_backgroundBlur_79_3145"/>
<feBlend mode="normal" in="SourceGraphic" in2="effect1_backgroundBlur_79_3145" result="shape"/>
</filter>
<linearGradient id="paint0_linear_79_3145" x1="10.0413" y1="6.61017" x2="7.56616" y2="13.5391" gradientUnits="userSpaceOnUse">
<stop stop-color="white"/>
<stop offset="0.5" stop-color="white" stop-opacity="0.9"/>
<stop offset="1" stop-color="white" stop-opacity="0.2"/>
</linearGradient>
</defs>
</svg>
