<svg width="16" height="16" viewBox="0 0 16 16" fill="none" xmlns="http://www.w3.org/2000/svg">
<rect width="16" height="16" rx="2" fill="white"/>
<path d="M2 4C2 3.44771 2.44772 3 3 3H10.6522C11.2045 3 11.6522 3.44772 11.6522 4V9.30435C11.6522 9.85663 11.2045 10.3043 10.6522 10.3043H9.30411C8.62879 10.3043 7.97357 10.5342 7.44623 10.9561L7.39407 10.9978C7.14132 11.2 6.77964 11.1906 6.53772 10.9756C6.0513 10.5432 5.42312 10.3043 4.77231 10.3043H3C2.44772 10.3043 2 9.85663 2 9.30435V4Z" fill="#F07630"/>
<g filter="url(#filter0_b_79_3198)">
<path d="M4.3479 5.56525C4.3479 5.01296 4.79562 4.56525 5.3479 4.56525H13.0001C13.5524 4.56525 14.0001 5.01296 14.0001 5.56525V10.8696C14.0001 11.4219 13.5524 11.8696 13.0001 11.8696H11.652C10.9767 11.8696 10.3215 12.0994 9.79413 12.5213L9.74197 12.563C9.48922 12.7652 9.12754 12.7558 8.88562 12.5408C8.3992 12.1084 7.77102 11.8696 7.12021 11.8696H5.3479C4.79562 11.8696 4.3479 11.4219 4.3479 10.8696V5.56525Z" fill="white" fill-opacity="0.06"/>
</g>
<path d="M10.3818 6.65216C10.582 6.65216 10.7622 6.77367 10.8373 6.9593L12.1068 10.0989C12.1629 10.2375 12.0959 10.3954 11.9572 10.4515C11.925 10.4646 11.8905 10.4713 11.8557 10.4713C11.6137 10.4713 11.3968 10.3221 11.3102 10.0962L11.12 9.59999H9.63308L9.44125 10.1167C9.36211 10.3298 9.15872 10.4713 8.93134 10.4713C8.78885 10.4713 8.67335 10.3558 8.67335 10.2133C8.67335 10.1811 8.67939 10.1491 8.69115 10.1191L9.92953 6.9606C10.0025 6.77455 10.1819 6.65216 10.3818 6.65216ZM7.34786 8.90607C7.56397 8.90607 7.73916 9.08127 7.73916 9.29738C7.73916 9.51349 7.56397 9.68868 7.34786 9.68868H6.82612C6.61001 9.68868 6.43481 9.51349 6.43481 9.29738C6.43481 9.08127 6.61001 8.90607 6.82612 8.90607H7.34786ZM10.3635 7.61216L9.86786 8.95303H10.8748L10.3635 7.61216ZM8.39134 7.07999C8.60745 7.07999 8.78264 7.25518 8.78264 7.47129C8.78264 7.6874 8.60745 7.8626 8.39134 7.8626H6.82612C6.61001 7.8626 6.43481 7.6874 6.43481 7.47129C6.43481 7.25518 6.61001 7.07999 6.82612 7.07999H8.39134Z" fill="url(#paint0_linear_79_3198)"/>
<defs>
<filter id="filter0_b_79_3198" x="-1.6521" y="-1.43475" width="21.6521" height="20.1434" filterUnits="userSpaceOnUse" color-interpolation-filters="sRGB">
<feFlood flood-opacity="0" result="BackgroundImageFix"/>
<feGaussianBlur in="BackgroundImageFix" stdDeviation="3"/>
<feComposite in2="SourceAlpha" operator="in" result="effect1_backgroundBlur_79_3198"/>
<feBlend mode="normal" in="SourceGraphic" in2="effect1_backgroundBlur_79_3198" result="shape"/>
</filter>
<linearGradient id="paint0_linear_79_3198" x1="9.28073" y1="6.65216" x2="6.43481" y2="10.5652" gradientUnits="userSpaceOnUse">
<stop stop-color="white"/>
<stop offset="0.5" stop-color="white" stop-opacity="0.9"/>
<stop offset="1" stop-color="white" stop-opacity="0.2"/>
</linearGradient>
</defs>
</svg>
