<svg width="16" height="16" viewBox="0 0 16 16" fill="none" xmlns="http://www.w3.org/2000/svg">
<rect width="16" height="16" rx="2" fill="white"/>
<path fill-rule="evenodd" clip-rule="evenodd" d="M2.87677 5.3595L8.31838 2.46614C8.8026 2.20868 9.40385 2.3925 9.66131 2.87671L12.5963 8.39671C12.8453 8.8649 12.6825 9.44607 12.2265 9.71675L7.1601 12.7244C6.68853 13.0044 6.0793 12.849 5.79935 12.3774C5.79859 12.3761 5.79782 12.3748 5.79706 12.3736L2.48679 6.73926C2.20899 6.26642 2.3671 5.6579 2.83994 5.3801C2.85206 5.37297 2.86434 5.3661 2.87677 5.3595Z" fill="#18CCF0"/>
<g filter="url(#filter0_b_41_2890)">
<path d="M13.007 4.88702H6.80084C6.25243 4.88702 5.80786 5.3316 5.80786 5.88001V12.0861C5.80786 12.6346 6.25243 13.0791 6.80084 13.0791H13.007C13.5554 13.0791 14 12.6346 14 12.0861V5.88001C14 5.3316 13.5554 4.88702 13.007 4.88702Z" fill="white" fill-opacity="0.06"/>
</g>
<path d="M10.3358 6.62476C10.772 6.62476 11.1257 6.97839 11.1257 7.41463C11.1257 7.79778 10.8529 8.11721 10.4909 8.18928L11.1952 9.55852L11.5176 9.55857C11.7918 9.55857 12.0141 9.78085 12.0141 10.0551V11.0932C12.0141 11.3674 11.7918 11.5897 11.5176 11.5897H8.29044C8.01623 11.5897 7.79395 11.3674 7.79395 11.0932V10.0551C7.79395 9.78085 8.01623 9.55857 8.29044 9.55857L8.70575 9.55852L9.35243 8.19547C8.97307 8.13772 8.6824 7.81012 8.6824 7.41463C8.6824 6.97839 9.03604 6.62476 9.47228 6.62476H10.3358ZM11.5663 9.78425H8.24174C8.1171 9.78425 8.01606 9.88528 8.01606 10.0099C8.01606 10.1346 8.1171 10.2356 8.24174 10.2356H11.5663C11.691 10.2356 11.792 10.1346 11.792 10.0099C11.792 9.88528 11.691 9.78425 11.5663 9.78425ZM10.2412 8.20434H9.60068L8.95276 9.55852H10.9437L10.2412 8.20434Z" fill="url(#paint0_linear_41_2890)"/>
<defs>
<filter id="filter0_b_41_2890" x="-0.192139" y="-1.11298" width="20.1921" height="20.1921" filterUnits="userSpaceOnUse" color-interpolation-filters="sRGB">
<feFlood flood-opacity="0" result="BackgroundImageFix"/>
<feGaussianBlur in="BackgroundImageFix" stdDeviation="3"/>
<feComposite in2="SourceAlpha" operator="in" result="effect1_backgroundBlur_41_2890"/>
<feBlend mode="normal" in="SourceGraphic" in2="effect1_backgroundBlur_41_2890" result="shape"/>
</filter>
<linearGradient id="paint0_linear_41_2890" x1="9.90403" y1="6.62476" x2="7.7097" y2="12.9228" gradientUnits="userSpaceOnUse">
<stop stop-color="white"/>
<stop offset="0.5" stop-color="white" stop-opacity="0.9"/>
<stop offset="1" stop-color="white" stop-opacity="0.2"/>
</linearGradient>
</defs>
</svg>
