<svg width="16" height="16" viewBox="0 0 16 16" fill="none" xmlns="http://www.w3.org/2000/svg">
<rect width="16" height="16" rx="2" fill="white"/>
<path fill-rule="evenodd" clip-rule="evenodd" d="M11.2067 10.6105C10.8987 11.1318 10.3479 11.4439 9.73192 11.4439L3.70582 11.4439C3.08981 11.4439 2.53901 11.1318 2.23101 10.6105C1.923 10.0892 1.923 9.46502 2.23101 8.94016L5.24224 3.8334C5.55025 3.31208 6.10104 3 6.71706 3C7.33307 3 7.88387 3.31208 8.19187 3.8334L11.2031 8.94016C11.5147 9.46502 11.5147 10.0892 11.2067 10.6105Z" fill="#FFAA00"/>
<g filter="url(#filter0_b_79_3349)">
<path fill-rule="evenodd" clip-rule="evenodd" d="M13.7695 12.1326C13.4615 12.654 12.9107 12.966 12.2947 12.966H6.26857C5.65255 12.966 5.10176 12.654 4.79375 12.1326C4.48574 11.6113 4.48574 10.9872 4.79375 10.4623L7.80499 5.35555C8.11299 4.83424 8.66379 4.52216 9.2798 4.52216C9.89582 4.52216 10.4466 4.83424 10.7546 5.35555L13.7659 10.4623C14.0775 10.9872 14.0775 11.6113 13.7695 12.1326Z" fill="white" fill-opacity="0.06"/>
</g>
<path d="M9.28137 9.75987C9.0253 9.75987 8.8186 9.52347 8.8186 9.23063V7.28656C8.8186 6.99372 9.0253 6.75732 9.28137 6.75732C9.53743 6.75732 9.74413 6.99372 9.74413 7.28656V9.23063C9.74413 9.52347 9.53743 9.75987 9.28137 9.75987ZM9.77807 10.5882C9.77807 10.8628 9.55594 11.0849 9.28137 11.0849C9.00679 11.0849 8.78467 10.8628 8.78467 10.5882C8.78467 10.3136 9.00679 10.0915 9.28137 10.0915C9.55594 10.0884 9.77807 10.3136 9.77807 10.5882Z" fill="url(#paint0_linear_79_3349)"/>
<defs>
<filter id="filter0_b_79_3349" x="-1.43726" y="-1.47784" width="21.4373" height="20.4439" filterUnits="userSpaceOnUse" color-interpolation-filters="sRGB">
<feFlood flood-opacity="0" result="BackgroundImageFix"/>
<feGaussianBlur in="BackgroundImageFix" stdDeviation="3"/>
<feComposite in2="SourceAlpha" operator="in" result="effect1_backgroundBlur_79_3349"/>
<feBlend mode="normal" in="SourceGraphic" in2="effect1_backgroundBlur_79_3349" result="shape"/>
</filter>
<linearGradient id="paint0_linear_79_3349" x1="9.28137" y1="6.75732" x2="8.28797" y2="12.0969" gradientUnits="userSpaceOnUse">
<stop stop-color="white"/>
<stop offset="0.5" stop-color="white" stop-opacity="0.9"/>
<stop offset="1" stop-color="white" stop-opacity="0.2"/>
</linearGradient>
</defs>
</svg>
