<svg width="16" height="16" viewBox="0 0 16 16" fill="none" xmlns="http://www.w3.org/2000/svg">
<rect width="16" height="16" rx="2" fill="white"/>
<path fill-rule="evenodd" clip-rule="evenodd" d="M7.125 3C9.95546 3 12.25 5.29454 12.25 8.125C12.25 10.9555 9.95546 13.25 7.125 13.25C4.29454 13.25 2 10.9555 2 8.125C2 5.29454 4.29454 3 7.125 3ZM7.125 7.25C6.64175 7.25 6.25 7.64175 6.25 8.125C6.25 8.60825 6.64175 9 7.125 9C7.60825 9 8 8.60825 8 8.125C8 7.64175 7.60825 7.25 7.125 7.25Z" fill="#F07630"/>
<g filter="url(#filter0_b_79_3212)">
<path d="M8.875 14C11.7055 14 14 11.7055 14 8.875C14 6.04454 11.7055 3.75 8.875 3.75C6.04454 3.75 3.75 6.04454 3.75 8.875C3.75 11.7055 6.04454 14 8.875 14Z" fill="white" fill-opacity="0.06"/>
</g>
<path opacity="0.7" fill-rule="evenodd" clip-rule="evenodd" d="M8.87494 3.75C11.7054 3.75 13.9999 6.04454 13.9999 8.875L13.9992 8.795L8.83582 8.94637L8.83569 3.75025L8.87494 3.75Z" fill="url(#paint0_linear_79_3212)"/>
<path d="M8.875 9.75C9.35825 9.75 9.75 9.35825 9.75 8.875C9.75 8.39175 9.35825 8 8.875 8C8.39175 8 8 8.39175 8 8.875C8 9.35825 8.39175 9.75 8.875 9.75Z" fill="white"/>
<defs>
<filter id="filter0_b_79_3212" x="-2.25" y="-2.25" width="22.25" height="22.25" filterUnits="userSpaceOnUse" color-interpolation-filters="sRGB">
<feFlood flood-opacity="0" result="BackgroundImageFix"/>
<feGaussianBlur in="BackgroundImageFix" stdDeviation="3"/>
<feComposite in2="SourceAlpha" operator="in" result="effect1_backgroundBlur_79_3212"/>
<feBlend mode="normal" in="SourceGraphic" in2="effect1_backgroundBlur_79_3212" result="shape"/>
</filter>
<linearGradient id="paint0_linear_79_3212" x1="413.653" y1="101.958" x2="96.5894" y2="455.134" gradientUnits="userSpaceOnUse">
<stop stop-color="#FFF7E4"/>
<stop offset="1" stop-color="#FFECC5" stop-opacity="0.352871"/>
</linearGradient>
</defs>
</svg>
