<svg width="16" height="16" viewBox="0 0 16 16" fill="none" xmlns="http://www.w3.org/2000/svg">
<rect width="16" height="16" rx="2" fill="white"/>
<path d="M8.33635 2.46471L2.87398 5.3691C2.39129 5.62575 2.20805 6.22509 2.4647 6.70778L5.3691 12.1701C5.62574 12.6528 6.22509 12.8361 6.70778 12.5794L12.1701 9.67503C12.6528 9.41838 12.8361 8.81903 12.5794 8.33635L9.67503 2.87398C9.41838 2.3913 8.81903 2.20806 8.33635 2.46471Z" fill="#F07630"/>
<g filter="url(#filter0_b_79_3224)">
<path d="M13.0101 4.87793H6.82358C6.27691 4.87793 5.83374 5.3211 5.83374 5.86777V12.0543C5.83374 12.601 6.27691 13.0441 6.82358 13.0441H13.0101C13.5568 13.0441 13.9999 12.601 13.9999 12.0543V5.86777C13.9999 5.3211 13.5568 4.87793 13.0101 4.87793Z" fill="white" fill-opacity="0.06"/>
</g>
<path d="M9.84731 6.62587L10.888 7.12002C10.9439 7.14658 10.9796 7.20297 10.9796 7.2649L10.9796 7.99871C10.8024 7.99871 10.6588 7.8551 10.6588 7.67794V7.36629L9.9389 7.02445V8.93689C9.94004 8.94458 9.94061 8.95153 9.94072 8.95859L9.94075 10.8976L10.6606 10.5558V10.2441C10.6606 10.0781 10.7869 9.94145 10.9486 9.92502L10.9814 9.92337V10.6572C10.9814 10.7191 10.9458 10.7755 10.8898 10.8021L9.84916 11.2962C9.74273 11.3468 9.61997 11.2691 9.61997 11.1513L9.61997 8.98559C9.61883 8.9779 9.61826 8.97095 9.61815 8.96389L9.61813 6.77075C9.61813 6.65294 9.74089 6.57534 9.84731 6.62587ZM11.5417 9.15203C11.6168 9.09109 11.7185 9.07471 11.8089 9.10904C11.8992 9.14337 11.9644 9.22322 11.9802 9.31866C11.9961 9.41415 11.9596 9.51085 11.8846 9.57199C11.8096 9.63294 11.7079 9.64932 11.6175 9.61499C11.5272 9.58066 11.4619 9.5008 11.4462 9.40536C11.4303 9.30987 11.4668 9.21318 11.5417 9.15203ZM10.7756 9.12761C10.8595 9.07928 10.9628 9.07928 11.0466 9.12761C11.1305 9.1757 11.1821 9.26506 11.1819 9.36173C11.1819 9.45836 11.1305 9.54795 11.0466 9.59613C10.9628 9.64485 10.8594 9.64485 10.7756 9.59613C10.6918 9.54792 10.6403 9.45845 10.6406 9.36173C10.6403 9.26538 10.6917 9.17579 10.7756 9.12761ZM11.5417 8.3501C11.6168 8.28915 11.7185 8.27277 11.8089 8.3071C11.8992 8.34143 11.9644 8.42128 11.9802 8.51672C11.9961 8.61222 11.9596 8.70891 11.8846 8.77005C11.8096 8.831 11.7079 8.84738 11.6175 8.81305C11.5272 8.77872 11.4619 8.69887 11.4462 8.60343C11.4303 8.50794 11.4668 8.41124 11.5417 8.3501ZM10.7756 8.32567C10.8595 8.27734 10.9628 8.27734 11.0466 8.32567C11.1305 8.37377 11.1821 8.46312 11.1819 8.5598C11.1819 8.65642 11.1305 8.74601 11.0466 8.79419C10.9628 8.84291 10.8594 8.84291 10.7756 8.79419C10.6918 8.74598 10.6403 8.65651 10.6406 8.5598C10.6403 8.46344 10.6917 8.37385 10.7756 8.32567ZM8.38876 7.63268C8.48206 7.67211 8.58934 7.65844 8.66977 7.59686C8.75019 7.53529 8.79139 7.43529 8.77766 7.33493C8.76436 7.23465 8.69839 7.14916 8.60477 7.11084C8.51151 7.07144 8.40428 7.08509 8.32387 7.14661C8.24346 7.20812 8.20223 7.30804 8.21586 7.40836C8.22933 7.50873 8.29512 7.59451 8.38876 7.63268ZM8.24617 9.65716C8.31699 9.73041 8.42182 9.75976 8.52039 9.73395C8.61895 9.70813 8.69593 9.63115 8.72175 9.53259C8.74757 9.43402 8.71821 9.32919 8.64496 9.25837C8.57414 9.18512 8.46931 9.15576 8.37074 9.18158C8.27218 9.2074 8.1952 9.28437 8.16938 9.38294C8.14357 9.48151 8.17292 9.58633 8.24617 9.65716ZM8.90812 10.3788C8.81534 10.3779 8.73105 10.4327 8.69413 10.5178C8.65817 10.6024 8.67778 10.7004 8.74353 10.7646C8.80955 10.8295 8.9088 10.849 8.99502 10.814C9.08147 10.779 9.13783 10.6966 9.13783 10.605C9.13783 10.4803 9.03522 10.3791 8.90812 10.3788ZM7.84985 8.54836C7.84985 8.63517 7.92023 8.70554 8.00703 8.70554C8.09384 8.70554 8.16421 8.63517 8.16421 8.54836C8.16421 8.46156 8.09384 8.39118 8.00703 8.39118C7.92023 8.39118 7.84985 8.46156 7.84985 8.54836ZM7.84985 10.1202C7.84985 10.207 7.92023 10.2773 8.00703 10.2773C8.09384 10.2773 8.16421 10.207 8.16421 10.1202C8.16421 10.0334 8.09384 9.96298 8.00703 9.96298C7.92023 9.96298 7.84985 10.0334 7.84985 10.1202ZM8.75252 8.50076C8.77115 8.61954 8.85221 8.71902 8.96493 8.7619C9.07765 8.80457 9.20475 8.78436 9.29815 8.70801C9.39131 8.63206 9.43657 8.51197 9.41671 8.39343C9.39787 8.27459 9.31681 8.17494 9.2043 8.13229C9.09157 8.08942 8.96454 8.10997 8.87107 8.18618C8.77792 8.26213 8.73266 8.38222 8.75252 8.50076Z" fill="url(#paint0_linear_79_3224)"/>
<defs>
<filter id="filter0_b_79_3224" x="-0.16626" y="-1.12207" width="20.1663" height="20.1662" filterUnits="userSpaceOnUse" color-interpolation-filters="sRGB">
<feFlood flood-opacity="0" result="BackgroundImageFix"/>
<feGaussianBlur in="BackgroundImageFix" stdDeviation="3"/>
<feComposite in2="SourceAlpha" operator="in" result="effect1_backgroundBlur_79_3224"/>
<feBlend mode="normal" in="SourceGraphic" in2="effect1_backgroundBlur_79_3224" result="shape"/>
</filter>
<linearGradient id="paint0_linear_79_3224" x1="9.91685" y1="6.61017" x2="7.19483" y2="11.9306" gradientUnits="userSpaceOnUse">
<stop stop-color="#F6F6F6"/>
<stop offset="0.5" stop-color="#FAFAFA" stop-opacity="0.9"/>
<stop offset="1" stop-color="white" stop-opacity="0.2"/>
</linearGradient>
</defs>
</svg>
