<svg width="16" height="16" viewBox="0 0 16 16" fill="none" xmlns="http://www.w3.org/2000/svg">
<rect width="16" height="16" rx="2" fill="white"/>
<path d="M8.53497 3.19164L2.90137 4.3891C2.40356 4.49491 2.08578 4.98425 2.19159 5.48206L3.38905 11.1157C3.49486 11.6135 3.9842 11.9313 4.48202 11.8254L10.1156 10.628C10.6134 10.5222 10.9312 10.0328 10.8254 9.53501L9.62793 3.90142C9.52212 3.4036 9.03278 3.08582 8.53497 3.19164Z" fill="#FBAD00"/>
<g filter="url(#filter0_b_79_3290)">
<path d="M12.0784 5.27728H6.31897C5.81004 5.27728 5.39746 5.68986 5.39746 6.19879V12.8798C5.39746 13.3887 5.81004 13.8013 6.31897 13.8013H12.0784C12.5874 13.8013 12.9999 13.3887 12.9999 12.8798V6.19879C12.9999 5.68986 12.5874 5.27728 12.0784 5.27728Z" fill="white" fill-opacity="0.06"/>
</g>
<path d="M7.5856 7.69623H8.68077C8.808 7.69623 8.91115 7.79937 8.91115 7.92661V9.02177C8.91115 9.14901 8.808 9.25215 8.68077 9.25215H7.5856C7.45837 9.25215 7.35522 9.14901 7.35522 9.02177V7.92661C7.35522 7.79937 7.45837 7.69623 7.5856 7.69623ZM9.48624 7.92661V9.02177C9.48624 9.14901 9.58939 9.25215 9.71662 9.25215H10.8118C10.939 9.25215 11.0422 9.14901 11.0422 9.02177V7.92661C11.0422 7.79937 10.939 7.69623 10.8118 7.69623H9.71662C9.58939 7.69623 9.48624 7.79937 9.48624 7.92661ZM9.4803 10.0507V11.1519C9.4803 11.2791 9.58345 11.3823 9.71068 11.3823H10.8118C10.9391 11.3823 11.0422 11.2791 11.0422 11.1519V10.0507C11.0422 9.9235 10.9391 9.82036 10.8118 9.82036H9.71068C9.58345 9.82036 9.4803 9.9235 9.4803 10.0507ZM7.5856 9.82036H8.68677C8.814 9.82036 8.91714 9.9235 8.91714 10.0507V11.1519C8.91714 11.2791 8.814 11.3823 8.68677 11.3823H7.5856C7.45837 11.3823 7.35522 11.2791 7.35522 11.1519V10.0507C7.35522 9.9235 7.45837 9.82036 7.5856 9.82036Z" fill="url(#paint0_linear_79_3290)"/>
<defs>
<filter id="filter0_b_79_3290" x="-0.602539" y="-0.722717" width="19.6025" height="20.524" filterUnits="userSpaceOnUse" color-interpolation-filters="sRGB">
<feFlood flood-opacity="0" result="BackgroundImageFix"/>
<feGaussianBlur in="BackgroundImageFix" stdDeviation="3"/>
<feComposite in2="SourceAlpha" operator="in" result="effect1_backgroundBlur_79_3290"/>
<feBlend mode="normal" in="SourceGraphic" in2="effect1_backgroundBlur_79_3290" result="shape"/>
</filter>
<linearGradient id="paint0_linear_79_3290" x1="9.19872" y1="7.69623" x2="6.89492" y2="11.9582" gradientUnits="userSpaceOnUse">
<stop stop-color="white"/>
<stop offset="0.5" stop-color="white" stop-opacity="0.9"/>
<stop offset="1" stop-color="white" stop-opacity="0.2"/>
</linearGradient>
</defs>
</svg>
