<svg width="16" height="16" viewBox="0 0 16 16" fill="none" xmlns="http://www.w3.org/2000/svg">
<rect width="16" height="16" rx="2" fill="white"/>
<path d="M6.58137 2C4.05123 2 2 4.05054 2 6.5807C2 9.1108 4.05124 11.1617 6.58136 11.1617C9.11115 11.1617 11.162 9.1108 11.162 6.5807C11.162 4.05054 9.11116 2 6.58137 2Z" fill="#F07630"/>
<g filter="url(#filter0_b_79_3236)">
<path fill-rule="evenodd" clip-rule="evenodd" d="M9.41926 3.9809C6.88912 3.9809 4.83789 6.03144 4.83789 8.5616C4.83789 11.0917 6.88913 13.1426 9.41925 13.1426C11.949 13.1426 13.9999 11.0917 13.9999 8.5616C13.9999 6.03144 11.9491 3.9809 9.41926 3.9809Z" fill="white" fill-opacity="0.06"/>
</g>
<path d="M11.3798 9.62975H9.14467C9.0974 9.62975 9.05202 9.62034 9.01039 9.60267C8.88687 9.55036 8.7998 9.42772 8.7998 9.28496V7.04978C8.7998 6.85912 8.95426 6.70465 9.14467 6.70465C9.33573 6.70465 9.49017 6.85912 9.49017 7.04978V8.93945H11.3798C11.5706 8.93945 11.725 9.0939 11.725 9.28463C11.725 9.4753 11.5705 9.62975 11.3798 9.62975Z" fill="url(#paint0_linear_79_3236)"/>
<defs>
<filter id="filter0_b_79_3236" x="-1.16211" y="-2.0191" width="21.1621" height="21.1617" filterUnits="userSpaceOnUse" color-interpolation-filters="sRGB">
<feFlood flood-opacity="0" result="BackgroundImageFix"/>
<feGaussianBlur in="BackgroundImageFix" stdDeviation="3"/>
<feComposite in2="SourceAlpha" operator="in" result="effect1_backgroundBlur_79_3236"/>
<feBlend mode="normal" in="SourceGraphic" in2="effect1_backgroundBlur_79_3236" result="shape"/>
</filter>
<linearGradient id="paint0_linear_79_3236" x1="10.2624" y1="6.70465" x2="8.27913" y2="10.6433" gradientUnits="userSpaceOnUse">
<stop stop-color="white"/>
<stop offset="0.5" stop-color="white" stop-opacity="0.9"/>
<stop offset="1" stop-color="white" stop-opacity="0.2"/>
</linearGradient>
</defs>
</svg>
