<svg width="16" height="16" viewBox="0 0 16 16" fill="none" xmlns="http://www.w3.org/2000/svg">
<rect width="16" height="16" rx="2" fill="white"/>
<path d="M10.05 10.2058C10.1623 9.95361 10.4561 9.75686 10.9315 9.61551C11.0244 9.58864 11.089 9.50481 11.092 9.40821L11.1134 8.59344C11.1169 8.49666 11.0572 8.40898 10.9661 8.37625C10.4981 8.20963 10.2146 7.99735 10.1156 7.73941C10.0164 7.48215 10.0851 7.13514 10.3216 6.69839C10.368 6.61295 10.3538 6.50734 10.2864 6.43734L9.72466 5.84595C9.65836 5.77618 9.55478 5.75705 9.46789 5.79846C9.01891 6.01193 8.66846 6.06259 8.41654 5.95042C8.16439 5.83816 7.96764 5.54432 7.82629 5.0689C7.79941 4.97607 7.71558 4.91146 7.61898 4.90845L6.80422 4.88698C6.70715 4.88377 6.61932 4.94387 6.58683 5.03538C6.42072 5.50301 6.20878 5.78629 5.95102 5.88524C5.69335 5.98415 5.34634 5.91575 4.91001 5.68005C4.82524 5.63417 4.72062 5.64777 4.65014 5.71352L4.05842 6.2744C3.98786 6.34066 3.96823 6.44485 4.00923 6.53253C4.22271 6.98152 4.27337 7.33197 4.1612 7.58389C4.04894 7.83604 3.7552 8.03257 3.27998 8.17346C3.18715 8.20026 3.12254 8.28404 3.11959 8.38062L3.09813 9.19539C3.09463 9.29217 3.15435 9.37985 3.2455 9.41257C3.71349 9.57919 3.997 9.79147 4.09601 10.0494C4.19496 10.3072 4.12625 10.6542 3.88989 11.0906C3.84361 11.176 3.85777 11.2815 3.92519 11.3515L4.48691 11.9429C4.55321 12.0126 4.65679 12.0318 4.74368 11.9904C5.19266 11.7769 5.54312 11.7262 5.79504 11.8384C6.04719 11.9507 6.24394 12.2445 6.38529 12.7199C6.41216 12.8128 6.49599 12.8774 6.59259 12.8804L7.40736 12.9018C7.50422 12.9052 7.59197 12.8454 7.62465 12.7542C7.79121 12.2863 8.00317 12.0028 8.26056 11.9036C8.51773 11.8045 8.86468 11.8728 9.30142 12.1087C9.38621 12.1547 9.49091 12.1411 9.56143 12.0753L10.1548 11.5129C10.2247 11.4461 10.2437 11.3421 10.2015 11.2551C9.98825 10.8077 9.93774 10.4579 10.05 10.2058Z" fill="#E62EA3"/>
<g filter="url(#filter0_b_79_3169)">
<path fill-rule="evenodd" clip-rule="evenodd" d="M11.6152 8.41694C11.7275 8.16479 12.0213 7.96804 12.4967 7.82669C12.5895 7.79982 12.6542 7.71599 12.6572 7.61939L12.6786 6.80462C12.6821 6.70784 12.6224 6.62016 12.5313 6.58743C12.0633 6.42081 11.7798 6.20853 11.6807 5.95059C11.5816 5.69333 11.6503 5.34632 11.8868 4.90957C11.9332 4.82413 11.919 4.71852 11.8516 4.64853L11.2898 4.05713C11.2235 3.98736 11.12 3.96823 11.0331 4.00964C10.5841 4.22311 10.2336 4.27377 9.98172 4.16161C9.72957 4.04934 9.53282 3.7555 9.39147 3.28008C9.3646 3.18725 9.28077 3.12264 9.18417 3.11963L8.3694 3.09816C8.27234 3.09495 8.1845 3.15505 8.15202 3.24657C7.9859 3.71419 7.77397 3.99747 7.5162 4.09642C7.25853 4.19533 6.91153 4.12693 6.4752 3.89123C6.39043 3.84535 6.2858 3.85895 6.21533 3.9247L5.62361 4.48558C5.55304 4.55184 5.53342 4.65603 5.57442 4.74372C5.78789 5.1927 5.83855 5.54315 5.72639 5.79508C5.61412 6.04722 5.32038 6.24375 4.84517 6.38464C4.75233 6.41144 4.68772 6.49522 4.68478 6.5918L4.66331 7.40657C4.65982 7.50335 4.71954 7.59103 4.81068 7.62376C5.27868 7.79037 5.56219 8.00265 5.6612 8.26059C5.76015 8.51836 5.69144 8.86541 5.45508 9.30176C5.40879 9.38718 5.42295 9.49271 5.49037 9.56266L6.0521 10.1541C6.1184 10.2238 6.22198 10.243 6.30887 10.2015C6.75785 9.98807 7.1083 9.93742 7.36023 10.0496C7.61238 10.1618 7.80912 10.4557 7.95047 10.9311C7.97735 11.0239 8.06118 11.0885 8.15778 11.0916L8.97255 11.113C9.06941 11.1164 9.15716 11.0566 9.18984 10.9653C9.35639 10.4975 9.56836 10.214 9.82574 10.1148C10.0829 10.0156 10.4299 10.084 10.8666 10.3199C10.9514 10.3658 11.0561 10.3523 11.1266 10.2865L11.72 9.72407C11.7898 9.65732 11.8089 9.55324 11.7667 9.46631C11.5534 9.01888 11.5029 8.66909 11.6152 8.41694Z" fill="white" fill-opacity="0.06"/>
</g>
<path d="M8.23355 8.08774C7.69218 7.84671 7.44833 7.21146 7.68936 6.6701C7.93076 6.1279 8.56601 5.88405 9.10738 6.12509C9.64957 6.36649 9.89342 7.00174 9.65202 7.54393C9.41099 8.08529 8.77574 8.32914 8.23355 8.08774Z" fill="url(#paint0_linear_79_3169)"/>
<defs>
<filter id="filter0_b_79_3169" x="-1.33691" y="-2.90198" width="20.0156" height="20.0151" filterUnits="userSpaceOnUse" color-interpolation-filters="sRGB">
<feFlood flood-opacity="0" result="BackgroundImageFix"/>
<feGaussianBlur in="BackgroundImageFix" stdDeviation="3"/>
<feComposite in2="SourceAlpha" operator="in" result="effect1_backgroundBlur_79_3169"/>
<feBlend mode="normal" in="SourceGraphic" in2="effect1_backgroundBlur_79_3169" result="shape"/>
</filter>
<linearGradient id="paint0_linear_79_3169" x1="184.01" y1="40.029" x2="-76.5035" y2="319.042" gradientUnits="userSpaceOnUse">
<stop stop-color="white"/>
<stop offset="0.224212" stop-color="white" stop-opacity="0.9"/>
<stop offset="1" stop-color="white" stop-opacity="0.204379"/>
</linearGradient>
</defs>
</svg>
