<svg width="16" height="16" viewBox="0 0 16 16" fill="none" xmlns="http://www.w3.org/2000/svg">
<rect width="16" height="16" rx="2" fill="white"/>
<rect x="3.9751" y="2.52173" width="8.04971" height="7.90755" rx="2" fill="#18CCF0"/>
<g filter="url(#filter0_b_41_3095)">
<rect x="2" y="4.68323" width="12" height="8.79505" rx="2" fill="white" fill-opacity="0.06"/>
</g>
<path fill-rule="evenodd" clip-rule="evenodd" d="M7.2537 6.72638C7.04763 6.72638 6.88058 6.89343 6.88058 7.0995C6.88058 7.30557 7.04763 7.47262 7.2537 7.47262H8.74618C8.95225 7.47262 9.1193 7.30557 9.1193 7.0995C9.1193 6.89343 8.95225 6.72638 8.74618 6.72638H7.2537ZM7.3545 7.83267L6.63403 10.5495L7.93991 11.4351L9.36587 10.6996L8.63038 7.83267H7.3545Z" fill="url(#paint0_linear_41_3095)"/>
<defs>
<filter id="filter0_b_41_3095" x="-4" y="-1.31677" width="24" height="20.795" filterUnits="userSpaceOnUse" color-interpolation-filters="sRGB">
<feFlood flood-opacity="0" result="BackgroundImageFix"/>
<feGaussianBlur in="BackgroundImageFix" stdDeviation="3"/>
<feComposite in2="SourceAlpha" operator="in" result="effect1_backgroundBlur_41_3095"/>
<feBlend mode="normal" in="SourceGraphic" in2="effect1_backgroundBlur_41_3095" result="shape"/>
</filter>
<linearGradient id="paint0_linear_41_3095" x1="9.04014" y1="6.72638" x2="5.91301" y2="12.6956" gradientUnits="userSpaceOnUse">
<stop stop-color="white"/>
<stop offset="0.5" stop-color="white" stop-opacity="0.9"/>
<stop offset="1" stop-color="white" stop-opacity="0.2"/>
</linearGradient>
</defs>
</svg>
