<svg width="16" height="16" viewBox="0 0 16 16" fill="none" xmlns="http://www.w3.org/2000/svg">
<rect width="16" height="16" rx="2" fill="white"/>
<path fill-rule="evenodd" clip-rule="evenodd" d="M9.97586 3.43876C9.9136 3.2677 9.73312 3.13966 9.55579 3.2042L9.20113 3.33329C9.20113 3.33329 8.43271 3.61297 7.53976 3.55053C6.62921 3.62364 5.95194 3.41811 5.95194 3.41811L5.65324 3.3331C5.51426 3.31911 5.33694 3.38365 5.23947 3.4837L5.1244 3.71931C5.1244 3.71931 4.71694 4.25507 4.01393 4.8984C3.34928 5.46319 2.66072 5.77838 2.60161 5.79989L2.24695 5.92898C2.06962 5.99352 2.01367 6.20762 2.07593 6.37868L3.34194 9.85701C3.67401 10.7694 4.55882 11.5451 5.75677 12.0777C6.87487 12.5748 8.04576 12.6653 8.75508 12.4071C9.4644 12.1489 10.3032 11.327 10.8402 10.2275C11.4746 9.02795 11.5947 7.88647 11.2626 6.97412L9.97586 3.43876Z" fill="#11D954"/>
<g filter="url(#filter0_b_41_3141)">
<path fill-rule="evenodd" clip-rule="evenodd" d="M14.5001 5.7196C14.5001 5.53756 14.3743 5.35551 14.1855 5.35551H13.8081C13.8081 5.35551 12.9904 5.35551 12.1726 4.99142C11.292 4.7487 10.7259 4.32393 10.7259 4.32393L10.4743 4.14189C10.3485 4.0812 10.1597 4.0812 10.0339 4.14189L9.84523 4.32393C9.84523 4.32393 9.2791 4.68802 8.39846 5.05211C7.58072 5.35551 6.82588 5.41619 6.76298 5.41619H6.38556C6.19685 5.41619 6.07104 5.59824 6.07104 5.78028V9.48184C6.07104 10.4527 6.63717 11.4843 7.58072 12.3945C8.46136 13.2441 9.53072 13.7295 10.2856 13.7295C11.0404 13.7295 12.1097 13.2441 12.9904 12.3945C13.9968 11.4843 14.5001 10.4527 14.5001 9.48184V5.7196Z" fill="white" fill-opacity="0.06"/>
</g>
<path d="M9.22954 10.8949C9.14872 10.8949 9.08312 10.8294 9.08312 10.7485C9.08312 10.6676 9.14872 10.602 9.22954 10.602L10.1897 10.6019V9.84145L8.35809 9.84155C8.27727 9.84155 8.21167 9.77604 8.21167 9.69513V6.91864C8.21167 6.83777 8.27727 6.77222 8.35809 6.77222H12.3145C12.3954 6.77222 12.461 6.83773 12.461 6.91864V9.69513C12.4609 9.77604 12.3953 9.84155 12.3145 9.84155L10.4827 9.84145V10.6019L11.4429 10.602C11.5237 10.602 11.5893 10.6675 11.5893 10.7485C11.5893 10.8293 11.5237 10.8949 11.4429 10.8949H9.22954ZM10.7801 8.16677L10.3888 8.55805C10.3316 8.6152 10.3316 8.70793 10.3888 8.76507C10.4174 8.79367 10.4549 8.80796 10.4923 8.80796C10.5298 8.80796 10.5673 8.79367 10.5958 8.76507L10.9871 8.37379C11.0443 8.31664 11.0443 8.22391 10.9871 8.16677C10.9299 8.10958 10.8373 8.10958 10.7801 8.16677ZM10.2651 7.72803L9.43506 8.55805C9.37787 8.6152 9.37787 8.70793 9.43506 8.76507C9.46365 8.79367 9.50114 8.80796 9.53859 8.80796C9.57603 8.80796 9.61353 8.79367 9.64212 8.76507L10.4721 7.93505C10.5293 7.87791 10.5293 7.78518 10.4721 7.72803C10.4149 7.67085 10.3223 7.67085 10.2651 7.72803Z" fill="url(#paint0_linear_41_3141)"/>
<defs>
<filter id="filter0_b_41_3141" x="0.0710449" y="-1.90363" width="20.429" height="21.6332" filterUnits="userSpaceOnUse" color-interpolation-filters="sRGB">
<feFlood flood-opacity="0" result="BackgroundImageFix"/>
<feGaussianBlur in="BackgroundImageFix" stdDeviation="3"/>
<feComposite in2="SourceAlpha" operator="in" result="effect1_backgroundBlur_41_3141"/>
<feBlend mode="normal" in="SourceGraphic" in2="effect1_backgroundBlur_41_3141" result="shape"/>
</filter>
<linearGradient id="paint0_linear_41_3141" x1="10.3363" y1="6.77222" x2="9.14823" y2="11.9902" gradientUnits="userSpaceOnUse">
<stop stop-color="white"/>
<stop offset="0.5" stop-color="white" stop-opacity="0.9"/>
<stop offset="1" stop-color="white" stop-opacity="0.2"/>
</linearGradient>
</defs>
</svg>
