<svg width="16" height="16" viewBox="0 0 16 16" fill="none" xmlns="http://www.w3.org/2000/svg">
<rect width="16" height="16" rx="2" fill="white"/>
<path fill-rule="evenodd" clip-rule="evenodd" d="M9.97586 3.55778C9.9136 3.38672 9.73312 3.25868 9.55579 3.32322L9.20113 3.45231C9.20113 3.45231 8.43271 3.73199 7.53976 3.66954C6.62921 3.74266 5.95194 3.53713 5.95194 3.53713L5.65324 3.45212C5.51426 3.43813 5.33694 3.50267 5.23947 3.60272L5.1244 3.83833C5.1244 3.83833 4.71694 4.37409 4.01393 5.01741C3.34928 5.58221 2.66072 5.8974 2.60161 5.91891L2.24695 6.048C2.06962 6.11254 2.01367 6.32663 2.07593 6.4977L3.34194 9.97603C3.67401 10.8884 4.55882 11.6641 5.75677 12.1967C6.87487 12.6938 8.04576 12.7843 8.75508 12.5261C9.4644 12.2679 10.3032 11.446 10.8402 10.3465C11.4746 9.14697 11.5947 8.00549 11.2626 7.09314L9.97586 3.55778Z" fill="#11D954"/>
<g filter="url(#filter0_b_41_3117)">
<path fill-rule="evenodd" clip-rule="evenodd" d="M14.5001 5.83862C14.5001 5.65658 14.3743 5.47453 14.1855 5.47453H13.8081C13.8081 5.47453 12.9904 5.47453 12.1726 5.11044C11.292 4.86772 10.7259 4.44295 10.7259 4.44295L10.4743 4.2609C10.3485 4.20022 10.1597 4.20022 10.0339 4.2609L9.84523 4.44295C9.84523 4.44295 9.2791 4.80704 8.39846 5.17112C7.58072 5.47453 6.82588 5.53521 6.76298 5.53521H6.38556C6.19685 5.53521 6.07104 5.71726 6.07104 5.8993V9.60086C6.07104 10.5718 6.63717 11.6033 7.58072 12.5136C8.46136 13.3631 9.53072 13.8486 10.2856 13.8486C11.0404 13.8486 12.1097 13.3631 12.9904 12.5136C13.9968 11.6033 14.5001 10.5718 14.5001 9.60086V5.83862Z" fill="white" fill-opacity="0.06"/>
</g>
<path d="M10.2909 6.89124C10.8912 6.89124 11.3779 7.36618 11.3779 7.95194C11.3779 8.53786 10.8912 9.0128 10.2909 9.0128C9.69058 9.0128 9.20394 8.53786 9.20394 7.95194C9.20394 7.36603 9.69074 6.89124 10.2909 6.89124ZM9.88332 9.36647H10.7893C11.5648 9.36647 12.1934 9.97979 12.1934 10.7366V10.8249C12.1934 11.1232 11.5647 11.1345 10.7893 11.1345H9.88332C9.10781 11.1345 8.47925 11.1341 8.47925 10.8249V10.7366C8.47925 9.97979 9.10781 9.36647 9.88332 9.36647Z" fill="url(#paint0_linear_41_3117)"/>
<defs>
<filter id="filter0_b_41_3117" x="0.0710449" y="-1.78461" width="20.429" height="21.6332" filterUnits="userSpaceOnUse" color-interpolation-filters="sRGB">
<feFlood flood-opacity="0" result="BackgroundImageFix"/>
<feGaussianBlur in="BackgroundImageFix" stdDeviation="3"/>
<feComposite in2="SourceAlpha" operator="in" result="effect1_backgroundBlur_41_3117"/>
<feBlend mode="normal" in="SourceGraphic" in2="effect1_backgroundBlur_41_3117" result="shape"/>
</filter>
<linearGradient id="paint0_linear_41_3117" x1="10.3363" y1="6.89124" x2="8.45723" y2="12.3346" gradientUnits="userSpaceOnUse">
<stop stop-color="white"/>
<stop offset="0.5" stop-color="white" stop-opacity="0.9"/>
<stop offset="1" stop-color="white" stop-opacity="0.2"/>
</linearGradient>
</defs>
</svg>
