<svg width="16" height="16" viewBox="0 0 16 16" fill="none" xmlns="http://www.w3.org/2000/svg">
<rect width="16" height="16" rx="2" fill="white"/>
<path d="M12 2H3.75C3.33579 2 3 2.33579 3 2.75V11.5C3 11.9142 3.33579 12.25 3.75 12.25H12C12.4142 12.25 12.75 11.9142 12.75 11.5V2.75C12.75 2.33579 12.4142 2 12 2Z" fill="#5438E6"/>
<path d="M9.25 4.75H5.75C5.47386 4.75 5.25 4.97386 5.25 5.25C5.25 5.52614 5.47386 5.75 5.75 5.75H9.25C9.52614 5.75 9.75 5.52614 9.75 5.25C9.75 4.97386 9.52614 4.75 9.25 4.75Z" fill="white"/>
<path d="M7 6.75H5.75C5.47386 6.75 5.25 6.97386 5.25 7.25C5.25 7.52614 5.47386 7.75 5.75 7.75H7C7.27614 7.75 7.5 7.52614 7.5 7.25C7.5 6.97386 7.27614 6.75 7 6.75Z" fill="white"/>
<g filter="url(#filter0_b_79_3133)">
<path d="M10.75 14C12.5449 14 14 12.5449 14 10.75C14 8.95507 12.5449 7.5 10.75 7.5C8.95507 7.5 7.5 8.95507 7.5 10.75C7.5 12.5449 8.95507 14 10.75 14Z" fill="white" fill-opacity="0.06"/>
</g>
<path d="M12.3164 9C12.3728 9.00044 12.4259 9.02579 12.4608 9.0689C12.4958 9.11156 12.5083 9.1677 12.4945 9.22063L11.6017 12.8621C11.582 12.9439 11.5065 13.0013 11.4202 13C11.3773 13.0001 11.3357 12.9853 11.303 12.9582L10.5752 12.363L10.2723 12.7208C10.2237 12.7783 10.1435 12.8004 10.0711 12.7762C9.99874 12.7519 9.94948 12.6864 9.94755 12.6119L9.94792 11.8632L10.0304 11.782L11.5658 9.92537L9.57699 11.5473L9.53338 11.5116L8.56538 11.0293C8.51667 10.9894 8.49267 10.9278 8.50198 10.8665C8.5115 10.805 8.55315 10.7528 8.61193 10.7286L12.2431 9.01499C12.2662 9.00513 12.2912 9 12.3164 9Z" fill="url(#paint0_linear_79_3133)"/>
<defs>
<filter id="filter0_b_79_3133" x="1.5" y="1.5" width="18.5" height="18.5" filterUnits="userSpaceOnUse" color-interpolation-filters="sRGB">
<feFlood flood-opacity="0" result="BackgroundImageFix"/>
<feGaussianBlur in="BackgroundImageFix" stdDeviation="3"/>
<feComposite in2="SourceAlpha" operator="in" result="effect1_backgroundBlur_79_3133"/>
<feBlend mode="normal" in="SourceGraphic" in2="effect1_backgroundBlur_79_3133" result="shape"/>
</filter>
<linearGradient id="paint0_linear_79_3133" x1="10.5" y1="9" x2="8.5" y2="12.25" gradientUnits="userSpaceOnUse">
<stop stop-color="white"/>
<stop offset="0.5" stop-color="white" stop-opacity="0.9"/>
<stop offset="1" stop-color="white" stop-opacity="0.2"/>
</linearGradient>
</defs>
</svg>
