<svg width="16" height="16" viewBox="0 0 16 16" fill="none" xmlns="http://www.w3.org/2000/svg">
<rect width="16" height="16" rx="2" fill="white"/>
<path d="M8.33635 2.46471L2.87398 5.3691C2.39129 5.62575 2.20805 6.22509 2.4647 6.70778L5.3691 12.1701C5.62574 12.6528 6.22509 12.8361 6.70778 12.5794L12.1701 9.67503C12.6528 9.41838 12.8361 8.81903 12.5794 8.33635L9.67503 2.87398C9.41838 2.3913 8.81903 2.20806 8.33635 2.46471Z" fill="#5438E6"/>
<g filter="url(#filter0_b_79_3110)">
<path d="M13.0101 4.87793H6.82358C6.27691 4.87793 5.83374 5.3211 5.83374 5.86777V12.0543C5.83374 12.601 6.27691 13.0441 6.82358 13.0441H13.0101C13.5568 13.0441 13.9999 12.601 13.9999 12.0543V5.86777C13.9999 5.3211 13.5568 4.87793 13.0101 4.87793Z" fill="white" fill-opacity="0.06"/>
</g>
<path d="M10.8216 8.85858C10.7532 8.79017 10.7532 8.67927 10.8216 8.61086L11.552 7.88029C11.7073 7.7245 11.7073 7.4724 11.552 7.31661C11.3939 7.16703 11.1465 7.16703 10.9883 7.31661L10.2579 8.04719C10.1896 8.11559 10.0787 8.1156 10.0103 8.04722C10.0103 8.04722 10.0103 8.04723 10.0103 8.04722C9.94188 7.97882 9.94185 7.8679 10.0102 7.79949L10.7406 7.06892C11.0375 6.78717 11.5029 6.78717 11.7997 7.06892C12.0916 7.36171 12.0916 7.83541 11.7997 8.1282L11.0693 8.85858C11.0009 8.92698 10.89 8.92698 10.8216 8.85858ZM7.87709 10.5862C7.76111 10.3064 7.82523 9.98433 8.03951 9.77026L8.7699 9.03969C8.83829 8.97129 8.94917 8.97128 9.01757 9.03966C9.01757 9.03965 9.01758 9.03966 9.01757 9.03966C9.08597 9.10806 9.08599 9.21898 9.0176 9.28739L8.2872 10.018C8.13188 10.1738 8.13188 10.4258 8.2872 10.5816C8.44299 10.737 8.69509 10.737 8.85088 10.5816L9.58127 9.85106C9.64966 9.78266 9.76054 9.78265 9.82894 9.85103C9.82894 9.85102 9.82895 9.85103 9.82894 9.85103C9.89734 9.91943 9.89736 10.0303 9.82897 10.0988L9.09858 10.8293C8.95827 10.9698 8.76771 11.0486 8.56915 11.048C8.26626 11.0483 7.99306 10.866 7.87709 10.5862ZM9.39438 7.97924C9.34792 7.97941 9.30331 7.96102 9.27045 7.92817C9.23759 7.89531 9.21921 7.8507 9.21938 7.80424V7.0269C9.22265 6.93255 9.30008 6.85775 9.39449 6.85775C9.4889 6.85775 9.56633 6.93255 9.5696 7.0269V7.80424C9.5696 7.85069 9.55113 7.89523 9.51827 7.92806C9.4854 7.96088 9.44083 7.9793 9.39438 7.97924ZM8.85802 8.05802C8.81161 8.05792 8.76715 8.03932 8.73449 8.00634L8.18405 7.4559C8.11885 7.38698 8.12035 7.27868 8.18744 7.2116C8.25453 7.14451 8.36282 7.14301 8.43175 7.20821L8.98218 7.75865C9.05043 7.82711 9.05043 7.93788 8.98218 8.00634C8.94918 8.03919 8.90459 8.05775 8.85802 8.05802ZM7.99476 8.60174C7.93075 8.60396 7.87063 8.57107 7.83797 8.51598C7.80531 8.46089 7.80531 8.39237 7.83797 8.33728C7.87063 8.28218 7.93075 8.2493 7.99476 8.25152H8.77209C8.86645 8.25479 8.94124 8.33222 8.94124 8.42663C8.94124 8.52104 8.86645 8.59847 8.77209 8.60174H7.99476ZM10.4448 11.0524C10.3984 11.0526 10.3538 11.0342 10.321 11.0013C10.2881 10.9685 10.2697 10.9239 10.2698 10.8774V10.1001C10.2698 10.0035 10.3482 9.9251 10.4448 9.9251C10.5415 9.9251 10.6198 10.0035 10.6198 10.1001V10.8774C10.62 10.9239 10.6016 10.9685 10.5687 11.0013C10.5359 11.0342 10.4913 11.0526 10.4448 11.0524ZM11.4085 10.6945L10.8579 10.144C10.8116 10.1002 10.7927 10.0347 10.8086 9.97295C10.8246 9.91121 10.8728 9.863 10.9345 9.84707C10.9962 9.83114 11.0618 9.85 11.1056 9.89632L11.6562 10.4468C11.7245 10.5152 11.7245 10.626 11.6562 10.6945C11.6231 10.7273 11.5785 10.7459 11.5318 10.7461C11.4855 10.746 11.4411 10.7274 11.4085 10.6945ZM11.8453 9.65198H11.068C10.9713 9.65198 10.893 9.57363 10.893 9.47698C10.893 9.38032 10.9713 9.30197 11.068 9.30197H11.8453C11.942 9.30197 12.0203 9.38032 12.0203 9.47698C12.0203 9.57363 11.942 9.65198 11.8453 9.65198Z" fill="url(#paint0_linear_79_3110)"/>
<defs>
<filter id="filter0_b_79_3110" x="-0.16626" y="-1.12207" width="20.1663" height="20.1662" filterUnits="userSpaceOnUse" color-interpolation-filters="sRGB">
<feFlood flood-opacity="0" result="BackgroundImageFix"/>
<feGaussianBlur in="BackgroundImageFix" stdDeviation="3"/>
<feComposite in2="SourceAlpha" operator="in" result="effect1_backgroundBlur_79_3110"/>
<feBlend mode="normal" in="SourceGraphic" in2="effect1_backgroundBlur_79_3110" result="shape"/>
</filter>
<linearGradient id="paint0_linear_79_3110" x1="9.91689" y1="6.8576" x2="7.81348" y2="12.0543" gradientUnits="userSpaceOnUse">
<stop stop-color="white"/>
<stop offset="0.5" stop-color="white" stop-opacity="0.9"/>
<stop offset="1" stop-color="white" stop-opacity="0.2"/>
</linearGradient>
</defs>
</svg>
