<svg width="16" height="16" viewBox="0 0 16 16" fill="none" xmlns="http://www.w3.org/2000/svg">
<rect width="16" height="16" rx="2" fill="white"/>
<path fill-rule="evenodd" clip-rule="evenodd" d="M6.84679 3.15649C8.30003 3.15649 9.50286 4.24914 9.67681 5.65618C11.0826 5.73772 12.2002 6.91043 12.1935 8.33778C12.1866 9.81589 10.9579 10.9984 9.47974 10.9984H4.21384C2.73573 10.9984 1.50705 9.81589 1.50003 8.33778C1.49338 6.91043 2.61106 5.73772 4.01681 5.65618C4.19067 4.24914 5.3935 3.15649 6.84679 3.15649Z" fill="#18CCF0"/>
<g filter="url(#filter0_b_41_3023)">
<path fill-rule="evenodd" clip-rule="evenodd" d="M9.15318 5.00165C10.6064 5.00165 11.8093 6.0943 11.9832 7.50133C13.3889 7.58287 14.5066 8.75559 14.4999 10.1829C14.493 11.661 13.2643 12.8435 11.7861 12.8435H6.52023C5.04213 12.8435 3.81345 11.661 3.80643 10.1829C3.79977 8.75559 4.91746 7.58287 6.32321 7.50133C6.49706 6.0943 7.6999 5.00165 9.15318 5.00165Z" fill="white" fill-opacity="0.06"/>
</g>
<path d="M8.76081 8.40609C8.67217 8.41867 8.57173 8.38035 8.49567 8.31706C8.3691 8.21585 8.29285 8.07709 8.24215 7.93775C8.17887 7.70996 8.19241 7.48237 8.2557 7.25459C8.3064 7.12802 8.38168 7.00145 8.49567 6.92559C8.55896 6.88766 8.62205 6.86269 8.68533 6.85011C8.78654 6.83754 8.89976 6.86134 8.97562 6.91204C9.10219 7.00068 9.19199 7.14137 9.24269 7.2933C9.31875 7.52108 9.31778 7.78641 9.22915 8.00161C9.17844 8.1156 9.11651 8.21604 9.02788 8.2919C8.95201 8.35519 8.86202 8.40609 8.76081 8.40609ZM10.0768 8.4564C9.96281 8.4564 9.84999 8.40647 9.76135 8.33061C9.67271 8.24197 9.63362 8.12721 9.60846 8.01322C9.5833 7.89923 9.58427 7.77402 9.59685 7.64745C9.60962 7.53346 9.66033 7.43225 9.71103 7.34361C9.76174 7.2424 9.83721 7.15241 9.92585 7.07654C9.98913 7.02584 10.0656 6.97688 10.1542 6.9643C10.2175 6.95172 10.2922 6.97591 10.3555 7.00107C10.4441 7.039 10.5206 7.11467 10.5838 7.19072C10.6725 7.30471 10.7356 7.43264 10.7483 7.57198C10.7609 7.67319 10.7483 7.77363 10.7232 7.86227C10.6858 7.97314 10.6351 8.07906 10.5722 8.17772C10.5202 8.26772 10.4455 8.34247 10.3555 8.39447C10.2668 8.44518 10.178 8.46898 10.0768 8.4564ZM8.17828 9.08924C8.14035 9.19046 8.09081 9.29187 8.00217 9.36792C7.88818 9.46914 7.74865 9.50726 7.60931 9.50726C7.49332 9.50806 7.38082 9.46759 7.29192 9.39308C7.17793 9.29187 7.10343 9.15407 7.06549 9.00215C7.04034 8.90094 7.02776 8.79953 7.04034 8.69831C7.06549 8.53381 7.11523 8.35577 7.21645 8.21643C7.29231 8.11521 7.39372 8.0258 7.52029 8.01322C7.6215 7.98806 7.7353 8.01477 7.84929 8.06547C7.98851 8.1425 8.09966 8.26178 8.16667 8.40609C8.19183 8.46937 8.21699 8.53246 8.21699 8.59574C8.22957 8.76024 8.22899 8.92474 8.17828 9.08924ZM11.5592 8.70993C11.6099 8.79856 11.6337 8.88739 11.6463 8.98861C11.6463 9.00854 11.6483 9.02867 11.6483 9.0486C11.6483 9.1682 11.6502 9.288 11.596 9.41824C11.5832 9.50688 11.5451 9.60945 11.4818 9.68531C11.4311 9.76117 11.344 9.8111 11.2554 9.83626C11.1668 9.86142 11.0653 9.86239 10.9767 9.84981C10.8627 9.83704 10.748 9.81149 10.6593 9.73563C10.5707 9.68492 10.52 9.58429 10.4948 9.49565C10.4569 9.36908 10.4581 9.22936 10.4581 9.10279C10.4581 8.96345 10.4828 8.82488 10.5335 8.69831C10.5842 8.5971 10.6481 8.50711 10.7367 8.4564C10.8 8.41847 10.8747 8.40705 10.938 8.39447C11.0646 8.38189 11.2033 8.39312 11.3173 8.4564C11.4185 8.50711 11.5085 8.60871 11.5592 8.70993ZM11.0657 10.4072C11.1923 10.5465 11.2796 10.7234 11.2922 10.9007C11.3173 11.1031 11.2676 11.2935 11.1664 11.458C11.1031 11.5846 11.0007 11.6986 10.8741 11.7619C10.6969 11.8631 10.495 11.8867 10.3052 11.8741C10.1153 11.8615 9.92507 11.8368 9.7478 11.7735C9.5326 11.7102 9.30598 11.698 9.07819 11.7232C8.9642 11.7357 8.86202 11.7745 8.76081 11.787C8.52672 11.8248 8.28923 11.8372 8.05249 11.8238C7.86264 11.811 7.67201 11.7106 7.54545 11.5587C7.46939 11.47 7.41888 11.3553 7.38095 11.2413C7.34301 11.1401 7.33063 11.0263 7.33063 10.9123C7.34321 10.7729 7.38153 10.647 7.44481 10.533C7.53345 10.3685 7.68575 10.2173 7.83767 10.1033C7.87561 10.0654 7.92554 10.0271 7.96347 9.98915C8.04269 9.92499 8.1189 9.85718 8.19183 9.78594C8.33057 9.65794 8.45337 9.51369 8.5576 9.35631C8.58276 9.30561 8.60869 9.2549 8.64662 9.21697C8.78596 9.0397 8.98975 8.91313 9.21753 8.88797C9.34717 8.87646 9.47761 8.89776 9.59685 8.9499C9.7867 9.03854 9.92527 9.19181 10.0265 9.35631C10.1658 9.54616 10.3187 9.72402 10.4832 9.88852C10.6477 10.0404 10.8122 10.1904 10.9767 10.3298C11.0146 10.3549 11.0406 10.382 11.0657 10.4072ZM8.58469 11.4193H9.16528C9.16528 10.8498 9.16625 10.2667 9.15367 9.67176H8.82467V10.1536H8.48212C8.44419 10.1536 8.40587 10.166 8.36794 10.1788C8.27931 10.2167 8.19125 10.2665 8.12797 10.3298C8.0521 10.4056 7.98863 10.508 7.96347 10.622C7.96037 10.6471 7.95573 10.6721 7.95573 10.6975C7.95573 10.7226 7.95379 10.7476 7.95379 10.7729C7.95379 10.7983 7.95573 10.8252 7.95573 10.8504C7.95573 10.8755 7.96037 10.9007 7.96347 10.9258C7.97624 11.027 8.01437 11.1149 8.07765 11.191C8.15351 11.305 8.26653 11.3806 8.3931 11.4058C8.45639 11.4186 8.52141 11.4193 8.58469 11.4193ZM9.67233 11.4193H10.4697V10.204H10.1407V11.1406H9.80006C9.76212 11.1406 9.72264 11.1271 9.69748 11.1019C9.68531 11.091 9.67569 11.0776 9.66934 11.0625C9.66298 11.0475 9.66003 11.0312 9.66071 11.0149V10.2175H9.32978V11.0768C9.32978 11.1654 9.36791 11.267 9.44396 11.3303C9.50725 11.381 9.58369 11.4067 9.67233 11.4193ZM8.30601 10.6336C8.34394 10.5577 8.40723 10.5078 8.47051 10.4826C8.49567 10.4701 8.51986 10.4565 8.53244 10.4691H8.82467V11.1542H8.5576C8.46896 11.1668 8.38188 11.1161 8.33117 11.04C8.29109 10.9754 8.26904 10.9012 8.26731 10.8252C8.26731 10.7619 8.28085 10.6969 8.30601 10.6336Z" fill="url(#paint0_linear_41_3023)"/>
<defs>
<filter id="filter0_b_41_3023" x="-2.1936" y="-0.998352" width="22.6936" height="19.8419" filterUnits="userSpaceOnUse" color-interpolation-filters="sRGB">
<feFlood flood-opacity="0" result="BackgroundImageFix"/>
<feGaussianBlur in="BackgroundImageFix" stdDeviation="3"/>
<feComposite in2="SourceAlpha" operator="in" result="effect1_backgroundBlur_41_3023"/>
<feBlend mode="normal" in="SourceGraphic" in2="effect1_backgroundBlur_41_3023" result="shape"/>
</filter>
<linearGradient id="paint0_linear_41_3023" x1="10.4521" y1="6.8468" x2="7.0354" y2="12.4976" gradientUnits="userSpaceOnUse">
<stop stop-color="white"/>
<stop offset="0.48" stop-color="white" stop-opacity="0.9"/>
<stop offset="1" stop-color="white" stop-opacity="0.2"/>
</linearGradient>
</defs>
</svg>
