<svg width="16" height="16" viewBox="0 0 16 16" fill="none" xmlns="http://www.w3.org/2000/svg">
<rect width="16" height="16" rx="2" fill="white"/>
<path fill-rule="evenodd" clip-rule="evenodd" d="M7.90886 6.73606C8.74227 6.29461 9.19995 5.47125 9.19995 4.51956C9.20072 3.13028 8.04647 2 6.62782 2C5.2084 2 4.05415 3.13028 4.05415 4.51956C4.05415 5.47203 4.47162 6.29461 5.30503 6.73606C3.41169 7.26641 2 9.10486 2 11.1575C2 11.5834 2.03015 12.0373 2.95865 12.0442C3.78742 12.0504 8.58765 12.0419 10.3001 12.0442C11.06 12.045 11.2533 11.602 11.2572 11.1575C11.2773 9.12341 9.80529 7.26641 7.90886 6.73606Z" fill="#3889FF"/>
<g filter="url(#filter0_b_77_2979)">
<path d="M9.95346 14C11.88 14 13.4418 12.4382 13.4418 10.5116C13.4418 8.58505 11.88 7.02325 9.95346 7.02325C8.02689 7.02325 6.46509 8.58505 6.46509 10.5116C6.46509 12.4382 8.02689 14 9.95346 14Z" fill="white" fill-opacity="0.06"/>
</g>
<path d="M11.4742 8.99074C12.2371 9.75363 12.2371 10.9905 11.4742 11.7534C10.7113 12.5163 9.47445 12.5163 8.71157 11.7534C7.94868 10.9905 7.94868 9.75363 8.71157 8.99074C9.47445 8.22786 10.7113 8.22786 11.4742 8.99074ZM11.1826 9.28236C10.5808 8.68052 9.60501 8.68052 9.00318 9.28236C8.40135 9.88419 8.40135 10.8599 9.00318 11.4618L11.1826 9.28236Z" fill="url(#paint0_linear_77_2979)"/>
<defs>
<filter id="filter0_b_77_2979" x="0.465088" y="1.02325" width="18.9768" height="18.9767" filterUnits="userSpaceOnUse" color-interpolation-filters="sRGB">
<feFlood flood-opacity="0" result="BackgroundImageFix"/>
<feGaussianBlur in="BackgroundImageFix" stdDeviation="3"/>
<feComposite in2="SourceAlpha" operator="in" result="effect1_backgroundBlur_77_2979"/>
<feBlend mode="normal" in="SourceGraphic" in2="effect1_backgroundBlur_77_2979" result="shape"/>
</filter>
<linearGradient id="paint0_linear_77_2979" x1="12.0464" y1="8.83885" x2="8.1394" y2="13.4418" gradientUnits="userSpaceOnUse">
<stop stop-color="white"/>
<stop offset="0.5" stop-color="white" stop-opacity="0.9"/>
<stop offset="1" stop-color="white" stop-opacity="0.2"/>
</linearGradient>
</defs>
</svg>
