<svg width="16" height="16" viewBox="0 0 16 16" fill="none" xmlns="http://www.w3.org/2000/svg">
<rect width="16" height="16" rx="2" fill="white"/>
<path d="M8.33635 2.46471L2.87398 5.3691C2.39129 5.62575 2.20805 6.22509 2.4647 6.70778L5.3691 12.1701C5.62574 12.6528 6.22509 12.8361 6.70778 12.5794L12.1701 9.67503C12.6528 9.41838 12.8361 8.81903 12.5794 8.33635L9.67503 2.87398C9.41838 2.3913 8.81903 2.20806 8.33635 2.46471Z" fill="#E62EA3"/>
<g filter="url(#filter0_b_79_3157)">
<path d="M13.0101 4.87793H6.82358C6.27691 4.87793 5.83374 5.3211 5.83374 5.86777V12.0543C5.83374 12.601 6.27691 13.0441 6.82358 13.0441H13.0101C13.5568 13.0441 13.9999 12.601 13.9999 12.0543V5.86777C13.9999 5.3211 13.5568 4.87793 13.0101 4.87793Z" fill="white" fill-opacity="0.06"/>
</g>
<path d="M8.5612 6.94385C8.686 6.94385 8.78717 7.04502 8.78717 7.16982L8.78718 9.31305C8.96531 9.39767 9.08846 9.57923 9.08846 9.78956C9.08846 9.99989 8.96531 10.1815 8.78718 10.2661L8.78717 10.7522C8.78717 10.877 8.686 10.9782 8.5612 10.9782C8.4364 10.9782 8.33523 10.877 8.33523 10.7522L8.33506 10.266C8.15702 10.1813 8.03394 9.99983 8.03394 9.78956C8.03394 9.57929 8.15702 9.39777 8.33506 9.31312L8.33523 7.16982C8.33523 7.04502 8.4364 6.94385 8.5612 6.94385ZM11.2728 6.94385C11.3976 6.94385 11.4988 7.04502 11.4988 7.16982L11.4988 9.31305C11.6769 9.39767 11.8001 9.57923 11.8001 9.78956C11.8001 9.99989 11.6769 10.1815 11.4988 10.2661L11.4988 10.7522C11.4988 10.877 11.3976 10.9782 11.2728 10.9782C11.148 10.9782 11.0469 10.877 11.0469 10.7522L11.0467 10.266C10.8687 10.1813 10.7456 9.99983 10.7456 9.78956C10.7456 9.57929 10.8687 9.39777 11.0467 9.31312L11.0469 7.16982C11.0469 7.04502 11.148 6.94385 11.2728 6.94385ZM9.91702 6.94385C10.0418 6.94385 10.143 7.04502 10.143 7.16982L10.143 7.6371C10.3211 7.72173 10.4443 7.90329 10.4443 8.11362C10.4443 8.32395 10.3211 8.50551 10.143 8.59013L10.143 10.7522C10.143 10.877 10.0418 10.9782 9.91702 10.9782C9.79222 10.9782 9.69105 10.877 9.69105 10.7522L9.69088 8.59006C9.51284 8.50541 9.38975 8.32389 9.38975 8.11362C9.38975 7.90335 9.51284 7.72183 9.69088 7.63717L9.69105 7.16982C9.69105 7.04502 9.79222 6.94385 9.91702 6.94385Z" fill="url(#paint0_linear_79_3157)"/>
<defs>
<filter id="filter0_b_79_3157" x="-0.16626" y="-1.12207" width="20.1663" height="20.1662" filterUnits="userSpaceOnUse" color-interpolation-filters="sRGB">
<feFlood flood-opacity="0" result="BackgroundImageFix"/>
<feGaussianBlur in="BackgroundImageFix" stdDeviation="3"/>
<feComposite in2="SourceAlpha" operator="in" result="effect1_backgroundBlur_79_3157"/>
<feBlend mode="normal" in="SourceGraphic" in2="effect1_backgroundBlur_79_3157" result="shape"/>
</filter>
<linearGradient id="paint0_linear_79_3157" x1="13.2595" y1="6.94919" x2="7.93914" y2="12.3933" gradientUnits="userSpaceOnUse">
<stop stop-color="white"/>
<stop offset="0.5" stop-color="white" stop-opacity="0.9"/>
<stop offset="1" stop-color="white" stop-opacity="0.2"/>
</linearGradient>
</defs>
</svg>
