<svg width="16" height="16" viewBox="0 0 16 16" fill="none" xmlns="http://www.w3.org/2000/svg">
<rect width="16" height="16" rx="2" fill="white"/>
<path d="M11.25 3H3.6875C3.3078 3 3 3.3078 3 3.6875V11.7083C3 12.088 3.3078 12.3958 3.6875 12.3958H11.25C11.6297 12.3958 11.9375 12.088 11.9375 11.7083V3.6875C11.9375 3.3078 11.6297 3 11.25 3Z" fill="#FF6E03"/>
<path d="M8.72917 5.52081H5.52083C5.2677 5.52081 5.0625 5.72602 5.0625 5.97915C5.0625 6.23228 5.2677 6.43748 5.52083 6.43748H8.72917C8.9823 6.43748 9.1875 6.23228 9.1875 5.97915C9.1875 5.72602 8.9823 5.52081 8.72917 5.52081Z" fill="url(#paint0_linear_79_3268)"/>
<path d="M6.66667 7.35419H5.52083C5.2677 7.35419 5.0625 7.55939 5.0625 7.81252C5.0625 8.06565 5.2677 8.27085 5.52083 8.27085H6.66667C6.9198 8.27085 7.125 8.06565 7.125 7.81252C7.125 7.55939 6.9198 7.35419 6.66667 7.35419Z" fill="url(#paint1_linear_79_3268)"/>
<g filter="url(#filter0_b_79_3268)">
<path d="M10.1042 14C11.7495 14 13.0833 12.6662 13.0833 11.0209C13.0833 9.37551 11.7495 8.04169 10.1042 8.04169C8.45882 8.04169 7.125 9.37551 7.125 11.0209C7.125 12.6662 8.45882 14 10.1042 14Z" fill="white" fill-opacity="0.06"/>
</g>
<path d="M10.1042 10.9062C10.3573 10.9062 10.5625 11.1114 10.5625 11.3646V12.2812C10.5625 12.5344 10.3573 12.7396 10.1042 12.7396C9.85104 12.7396 9.64583 12.5344 9.64583 12.2812V11.3646C9.64583 11.1114 9.85104 10.9062 10.1042 10.9062ZM10.1042 10.4479C10.4206 10.4479 10.6771 10.1914 10.6771 9.87498C10.6771 9.55857 10.4206 9.30206 10.1042 9.30206C9.78775 9.30206 9.53125 9.55857 9.53125 9.87498C9.53125 10.1914 9.78775 10.4479 10.1042 10.4479Z" fill="url(#paint2_linear_79_3268)"/>
<defs>
<filter id="filter0_b_79_3268" x="1.125" y="2.04169" width="17.9583" height="17.9583" filterUnits="userSpaceOnUse" color-interpolation-filters="sRGB">
<feFlood flood-opacity="0" result="BackgroundImageFix"/>
<feGaussianBlur in="BackgroundImageFix" stdDeviation="3"/>
<feComposite in2="SourceAlpha" operator="in" result="effect1_backgroundBlur_79_3268"/>
<feBlend mode="normal" in="SourceGraphic" in2="effect1_backgroundBlur_79_3268" result="shape"/>
</filter>
<linearGradient id="paint0_linear_79_3268" x1="7.125" y1="5.52081" x2="7.125" y2="6.43748" gradientUnits="userSpaceOnUse">
<stop stop-color="white"/>
<stop offset="0.5" stop-color="white" stop-opacity="0.9"/>
<stop offset="1" stop-color="white" stop-opacity="0.2"/>
</linearGradient>
<linearGradient id="paint1_linear_79_3268" x1="6.09375" y1="7.35419" x2="6.09375" y2="8.27085" gradientUnits="userSpaceOnUse">
<stop stop-color="white"/>
<stop offset="0.5" stop-color="white" stop-opacity="0.9"/>
<stop offset="1" stop-color="white" stop-opacity="0.2"/>
</linearGradient>
<linearGradient id="paint2_linear_79_3268" x1="10.1042" y1="9.30206" x2="9.41667" y2="13.7708" gradientUnits="userSpaceOnUse">
<stop stop-color="white"/>
<stop offset="0.5" stop-color="white" stop-opacity="0.9"/>
<stop offset="1" stop-color="white" stop-opacity="0.2"/>
</linearGradient>
</defs>
</svg>
