<svg width="16" height="16" viewBox="0 0 16 16" fill="none" xmlns="http://www.w3.org/2000/svg">
<rect width="16" height="16" rx="2" fill="white"/>
<path d="M2 4C2 3.44771 2.44772 3 3 3H10.6522C11.2045 3 11.6522 3.44772 11.6522 4V9.30435C11.6522 9.85663 11.2045 10.3043 10.6522 10.3043H9.30411C8.62879 10.3043 7.97357 10.5342 7.44623 10.9561L7.39407 10.9978C7.14132 11.2 6.77964 11.1906 6.53772 10.9756C6.0513 10.5432 5.42312 10.3043 4.77231 10.3043H3C2.44772 10.3043 2 9.85663 2 9.30435V4Z" fill="#3889FF"/>
<g filter="url(#filter0_b_77_2986)">
<path d="M4.3479 5.56525C4.3479 5.01296 4.79562 4.56525 5.3479 4.56525H13.0001C13.5524 4.56525 14.0001 5.01296 14.0001 5.56525V10.8696C14.0001 11.4219 13.5524 11.8696 13.0001 11.8696H11.652C10.9767 11.8696 10.3215 12.0994 9.79413 12.5213L9.74197 12.563C9.48922 12.7652 9.12754 12.7558 8.88562 12.5408C8.3992 12.1084 7.77102 11.8696 7.12021 11.8696H5.3479C4.79562 11.8696 4.3479 11.4219 4.3479 10.8696V5.56525Z" fill="white" fill-opacity="0.06"/>
</g>
<path d="M8.54869 7.12193C8.83405 7.12121 9.1041 7.25092 9.28191 7.47411L10.7373 9.29344C10.8268 9.40544 10.9604 9.46953 11.1038 9.46953L11.372 9.46929L11.3036 9.40074C11.2443 9.34144 11.2212 9.255 11.2429 9.17399C11.2646 9.09298 11.3279 9.02971 11.4089 9.008C11.4899 8.98629 11.5763 9.00945 11.6356 9.06876L12.1049 9.53792C12.1194 9.55233 12.1321 9.56875 12.1426 9.58691C12.1845 9.65956 12.1845 9.74907 12.1426 9.82172C12.1328 9.83864 12.1211 9.85405 12.1078 9.86773C12.107 9.86849 12.1061 9.8694 12.1052 9.87031L11.6356 10.3399C11.5916 10.384 11.5319 10.4087 11.4696 10.4087C11.3746 10.4089 11.2888 10.3517 11.2524 10.2639C11.216 10.176 11.2363 10.075 11.3036 10.0079L11.3723 9.93886L11.1036 9.9391C10.8182 9.93977 10.5481 9.80997 10.3704 9.58669L8.91495 7.76759C8.82613 7.65594 8.69111 7.59107 8.54845 7.5915H7.71309C7.6292 7.59151 7.55168 7.54677 7.50973 7.47412C7.46778 7.40147 7.46778 7.31196 7.50973 7.23931C7.55168 7.16667 7.6292 7.12193 7.71309 7.12193H8.54869ZM9.49904 8.93986C9.598 9.01915 9.61611 9.16271 9.53994 9.2641L9.28168 9.58669C9.10396 9.80987 8.83398 9.93959 8.54869 9.93886L7.71309 9.9391C7.6292 9.93911 7.55168 9.89436 7.50973 9.82172C7.46778 9.74907 7.46778 9.65956 7.50973 9.58691C7.55168 9.51427 7.6292 9.46952 7.71309 9.46953H8.54869C8.6919 9.46953 8.82573 9.40544 8.91518 9.29344L9.17368 8.97062C9.25603 8.87418 9.40007 8.86056 9.49904 8.93986ZM11.6356 6.72092L12.1049 7.19009C12.1194 7.2045 12.1321 7.22092 12.1426 7.23908C12.1845 7.31173 12.1845 7.40124 12.1426 7.47388C12.1328 7.49081 12.1211 7.50622 12.1078 7.5199C12.107 7.52065 12.1061 7.52157 12.1052 7.52247L11.6356 7.99204C11.5916 8.03614 11.5319 8.0609 11.4696 8.06083C11.3746 8.06104 11.2888 8.00386 11.2524 7.91603C11.216 7.82821 11.2363 7.72712 11.3036 7.66006L11.3723 7.59103L11.1036 7.59126C10.9604 7.59126 10.8266 7.65536 10.7371 7.76735L10.4786 8.09018C10.4343 8.14604 10.3668 8.17849 10.2955 8.17822C10.2053 8.17808 10.1231 8.12627 10.0841 8.04493C10.0452 7.9636 10.0562 7.86711 10.1126 7.7967L10.3708 7.47411C10.5485 7.25081 10.8185 7.121 11.1038 7.12169L11.372 7.12146L11.3036 7.05291C11.2443 6.9936 11.2212 6.90717 11.2429 6.82616C11.2646 6.74515 11.3279 6.68187 11.4089 6.66016C11.4899 6.63846 11.5763 6.66162 11.6356 6.72092Z" fill="url(#paint0_linear_77_2986)"/>
<defs>
<filter id="filter0_b_77_2986" x="-1.6521" y="-1.43475" width="21.6521" height="20.1434" filterUnits="userSpaceOnUse" color-interpolation-filters="sRGB">
<feFlood flood-opacity="0" result="BackgroundImageFix"/>
<feGaussianBlur in="BackgroundImageFix" stdDeviation="3"/>
<feComposite in2="SourceAlpha" operator="in" result="effect1_backgroundBlur_77_2986"/>
<feBlend mode="normal" in="SourceGraphic" in2="effect1_backgroundBlur_77_2986" result="shape"/>
</filter>
<linearGradient id="paint0_linear_77_2986" x1="11.9164" y1="6.65216" x2="6.43479" y2="11.4782" gradientUnits="userSpaceOnUse">
<stop stop-color="white"/>
<stop offset="0.5" stop-color="white" stop-opacity="0.9"/>
<stop offset="1" stop-color="white" stop-opacity="0.2"/>
</linearGradient>
</defs>
</svg>
