<svg width="16" height="16" viewBox="0 0 16 16" fill="none" xmlns="http://www.w3.org/2000/svg">
<rect width="16" height="16" rx="2" fill="white"/>
<path d="M8.36438 2.52123L2.44681 5.66765C1.9239 5.94569 1.72539 6.59498 2.00343 7.11789L5.14985 13.0355C5.42789 13.5584 6.07718 13.7569 6.60009 13.4788L12.5177 10.3324C13.0406 10.0544 13.2391 9.40508 12.961 8.88218L9.81462 2.96461C9.53658 2.4417 8.88729 2.24319 8.36438 2.52123Z" fill="#18CCF0"/>
<g filter="url(#filter0_b_41_2993)">
<path d="M13.4277 5.13556H6.72565C6.13342 5.13556 5.65332 5.61566 5.65332 6.20789V12.9099C5.65332 13.5022 6.13342 13.9823 6.72565 13.9823H13.4277C14.0199 13.9823 14.5 13.5022 14.5 12.9099V6.20789C14.5 5.61566 14.0199 5.13556 13.4277 5.13556Z" fill="white" fill-opacity="0.06"/>
</g>
<path d="M10.9005 7.47886L12.1701 8.794C12.2726 8.90021 12.27 9.06932 12.1642 9.17229L9.50421 11.7616C9.45416 11.8103 9.38707 11.8376 9.31722 11.8376H8.06618C7.91812 11.8376 7.7981 11.7176 7.7981 11.5695V10.3706C7.7981 10.3006 7.82546 10.2334 7.87436 10.1833L10.5158 7.47778C10.6192 7.37184 10.7889 7.3698 10.8949 7.47323C10.8968 7.47508 10.8986 7.47696 10.9005 7.47886Z" fill="url(#paint0_linear_41_2993)"/>
<defs>
<filter id="filter0_b_41_2993" x="-0.34668" y="-0.864441" width="20.8467" height="20.8467" filterUnits="userSpaceOnUse" color-interpolation-filters="sRGB">
<feFlood flood-opacity="0" result="BackgroundImageFix"/>
<feGaussianBlur in="BackgroundImageFix" stdDeviation="3"/>
<feComposite in2="SourceAlpha" operator="in" result="effect1_backgroundBlur_41_2993"/>
<feBlend mode="normal" in="SourceGraphic" in2="effect1_backgroundBlur_41_2993" result="shape"/>
</filter>
<linearGradient id="paint0_linear_41_2993" x1="10.0217" y1="7.39697" x2="7.66602" y2="13.1432" gradientUnits="userSpaceOnUse">
<stop stop-color="white"/>
<stop offset="0.5" stop-color="white" stop-opacity="0.9"/>
<stop offset="1" stop-color="white" stop-opacity="0.2"/>
</linearGradient>
</defs>
</svg>
