<svg width="16" height="16" viewBox="0 0 16 16" fill="none" xmlns="http://www.w3.org/2000/svg">
<rect width="16" height="16" rx="2" fill="white"/>
<path d="M8.33635 2.46471L2.87398 5.3691C2.39129 5.62575 2.20805 6.22509 2.4647 6.70778L5.3691 12.1701C5.62574 12.6528 6.22509 12.8361 6.70778 12.5794L12.1701 9.67503C12.6528 9.41838 12.8361 8.81903 12.5794 8.33635L9.67503 2.87398C9.41838 2.3913 8.81903 2.20806 8.33635 2.46471Z" fill="#3889FF"/>
<g filter="url(#filter0_b_79_3050)">
<path d="M13.0101 4.87793H6.82358C6.27691 4.87793 5.83374 5.3211 5.83374 5.86777V12.0543C5.83374 12.601 6.27691 13.0441 6.82358 13.0441H13.0101C13.5568 13.0441 13.9999 12.601 13.9999 12.0543V5.86777C13.9999 5.3211 13.5568 4.87793 13.0101 4.87793Z" fill="white" fill-opacity="0.06"/>
</g>
<path d="M9.50282 10.2489C9.71936 10.5871 10.103 10.8123 10.5391 10.8123C11.2134 10.8123 11.7621 10.2739 11.7621 9.61253C11.7621 9.21873 11.5676 8.86862 11.268 8.64975C11.2171 9.54091 10.4632 10.2493 9.5421 10.2493C9.52894 10.2493 9.51588 10.2492 9.50282 10.2489ZM8.88959 10.1241C8.2586 9.87134 7.81348 9.26292 7.81348 8.55348C7.81348 7.61757 8.58812 6.8576 9.5421 6.8576C10.3157 6.8576 10.9714 7.35735 11.1917 8.04538C11.8226 8.29816 12.2678 8.90658 12.2678 9.61603C12.2678 10.5519 11.4931 11.3119 10.5391 11.3119C9.76557 11.3119 9.10993 10.8121 8.88959 10.1241ZM10.5807 7.92061C10.3646 7.58052 9.97978 7.35365 9.5421 7.35365C8.86788 7.35365 8.31919 7.89196 8.31919 8.55342C8.31919 8.94722 8.51371 9.29749 8.81341 9.51636C8.86606 8.62672 9.61924 7.92011 10.5391 7.92011C10.553 7.92011 10.5669 7.92026 10.5807 7.92061ZM10.7589 8.4321C10.6863 8.41916 10.6128 8.41267 10.5391 8.41271C9.86493 8.41271 9.31619 8.95102 9.31619 9.61248C9.31619 9.65343 9.31827 9.69388 9.32237 9.73381C9.39369 9.74652 9.46713 9.7532 9.5421 9.7532C10.2163 9.7532 10.7651 9.21489 10.7651 8.55342C10.7651 8.51248 10.763 8.47198 10.7589 8.4321Z" fill="url(#paint0_linear_79_3050)"/>
<defs>
<filter id="filter0_b_79_3050" x="-0.16626" y="-1.12207" width="20.1663" height="20.1662" filterUnits="userSpaceOnUse" color-interpolation-filters="sRGB">
<feFlood flood-opacity="0" result="BackgroundImageFix"/>
<feGaussianBlur in="BackgroundImageFix" stdDeviation="3"/>
<feComposite in2="SourceAlpha" operator="in" result="effect1_backgroundBlur_79_3050"/>
<feBlend mode="normal" in="SourceGraphic" in2="effect1_backgroundBlur_79_3050" result="shape"/>
</filter>
<linearGradient id="paint0_linear_79_3050" x1="11.3126" y1="6.8576" x2="8.76865" y2="11.3119" gradientUnits="userSpaceOnUse">
<stop stop-color="white"/>
<stop offset="0.5" stop-color="white" stop-opacity="0.9"/>
<stop offset="1" stop-color="white" stop-opacity="0.2"/>
</linearGradient>
</defs>
</svg>
