<svg width="16" height="16" viewBox="0 0 16 16" fill="none" xmlns="http://www.w3.org/2000/svg">
<rect width="16" height="16" rx="2" fill="white"/>
<path d="M8.33635 2.46471L2.87398 5.3691C2.39129 5.62575 2.20805 6.22509 2.4647 6.70778L5.3691 12.1701C5.62574 12.6528 6.22509 12.8361 6.70778 12.5794L12.1701 9.67503C12.6528 9.41838 12.8361 8.81903 12.5794 8.33635L9.67503 2.87398C9.41838 2.3913 8.81903 2.20806 8.33635 2.46471Z" fill="#5438E6"/>
<g filter="url(#filter0_b_79_3077)">
<path d="M13.0101 4.87793H6.82358C6.27691 4.87793 5.83374 5.3211 5.83374 5.86777V12.0543C5.83374 12.601 6.27691 13.0441 6.82358 13.0441H13.0101C13.5568 13.0441 13.9999 12.601 13.9999 12.0543V5.86777C13.9999 5.3211 13.5568 4.87793 13.0101 4.87793Z" fill="white" fill-opacity="0.06"/>
</g>
<path d="M9.91689 6.8576C8.75523 6.8576 7.81348 7.79936 7.81348 8.96102C7.81348 10.1227 8.75502 11.0644 9.91689 11.0644C11.0786 11.0644 12.0203 10.1227 12.0203 8.96102C12.0203 7.79936 11.0786 6.8576 9.91689 6.8576ZM11.5879 9.21336H11.0804C11.0173 9.21336 10.9606 9.19188 10.936 9.13437C10.9347 9.13143 10.9334 9.13648 10.9324 9.13332L10.7881 8.73058L10.4435 9.70878C10.4226 9.76848 10.3682 9.81 10.3051 9.81431C10.3017 9.81473 10.2986 9.81515 10.2952 9.81515C10.2358 9.81523 10.1814 9.78181 10.1547 9.72879L9.8021 9.02358L9.72016 9.1508C9.69214 9.19988 9.64012 9.21357 9.58367 9.21357H8.24591C8.15892 9.21357 8.08857 9.13227 8.08857 9.04527C8.08857 8.9587 8.15892 8.87719 8.24591 8.87719H9.49246L9.67487 8.58862C9.7031 8.53933 9.75576 8.54059 9.81221 8.54059H9.81558C9.87371 8.54059 9.92595 8.57219 9.95186 8.624L10.2703 9.25907L10.6398 8.21895C10.6619 8.15618 10.7213 8.11995 10.7879 8.11995C10.8546 8.11995 10.9138 8.12774 10.9362 8.1903L11.1912 8.87677H11.5877C11.6742 8.87677 11.7448 8.95849 11.7448 9.04506C11.7448 9.13206 11.6742 9.21357 11.5877 9.21357L11.5879 9.21336Z" fill="url(#paint0_linear_79_3077)"/>
<defs>
<filter id="filter0_b_79_3077" x="-0.16626" y="-1.12207" width="20.1663" height="20.1662" filterUnits="userSpaceOnUse" color-interpolation-filters="sRGB">
<feFlood flood-opacity="0" result="BackgroundImageFix"/>
<feGaussianBlur in="BackgroundImageFix" stdDeviation="3"/>
<feComposite in2="SourceAlpha" operator="in" result="effect1_backgroundBlur_79_3077"/>
<feBlend mode="normal" in="SourceGraphic" in2="effect1_backgroundBlur_79_3077" result="shape"/>
</filter>
<linearGradient id="paint0_linear_79_3077" x1="9.91689" y1="6.8576" x2="8.43394" y2="11.8984" gradientUnits="userSpaceOnUse">
<stop stop-color="white"/>
<stop offset="0.5" stop-color="white" stop-opacity="0.9"/>
<stop offset="1" stop-color="white" stop-opacity="0.2"/>
</linearGradient>
</defs>
</svg>
